<svg xmlns="http://www.w3.org/2000/svg" version="1.1" viewBox="0.00 0.00 600.00 300.00">
<g stroke-width="2.00" fill="none" stroke-linecap="butt">
<path stroke="#fcfcec" stroke-opacity="0.820" vector-effect="non-scaling-stroke" d="
  M 202.04 111.83
  Q 201.58 112.37 201.33 112.38"
/>
<path stroke="#fcfcec" stroke-opacity="0.820" vector-effect="non-scaling-stroke" d="
  M 48.44 176.62
  Q 48.10 176.83 47.53 176.71"
/>
<path stroke="#fcfcec" stroke-opacity="0.820" vector-effect="non-scaling-stroke" d="
  M 194.94 116.71
  L 194.47 117.34"
/>
<path stroke="#fcfcec" stroke-opacity="0.820" vector-effect="non-scaling-stroke" d="
  M 62.53 161.42
  Q 62.31 161.46 62.11 161.40
  A 0.45 0.44 10.9 0 1 61.81 160.97
  Q 61.82 160.55 61.64 160.19"
/>
<path stroke="#fcfcec" stroke-opacity="0.820" vector-effect="non-scaling-stroke" d="
  M 169.46 110.75
  L 169.31 111.76"
/>
<path stroke="#fcfcec" stroke-opacity="0.820" vector-effect="non-scaling-stroke" d="
  M 82.55 148.14
  Q 81.57 147.70 81.93 146.96"
/>
<path stroke="#fcfcec" stroke-opacity="0.820" vector-effect="non-scaling-stroke" d="
  M 174.85 125.02
  L 174.79 125.88"
/>
<path stroke="#fcfcec" stroke-opacity="0.820" vector-effect="non-scaling-stroke" d="
  M 173.43 135.43
  Q 173.73 135.70 173.04 135.94"
/>
<path stroke="#fcfcec" stroke-opacity="0.820" vector-effect="non-scaling-stroke" d="
  M 163.77 142.94
  Q 163.71 143.47 164.15 143.63"
/>
<path stroke="#fcfcec" stroke-opacity="0.820" vector-effect="non-scaling-stroke" d="
  M 108.85 176.40
  L 108.07 176.19"
/>
<path stroke="#fcfcec" stroke-opacity="0.820" vector-effect="non-scaling-stroke" d="
  M 100.86 150.09
  Q 100.16 150.31 100.17 149.43"
/>
<path stroke="#fcfcec" stroke-opacity="0.820" vector-effect="non-scaling-stroke" d="
  M 451.25 187.86
  Q 451.66 187.84 451.97 187.94"
/>
</g>
<path fill="#ffffff" d="
  M 202.04 111.83
  Q 201.58 112.37 201.33 112.38
  Q 182.57 86.67 152.47 79.27
  C 114.47 69.93 74.90 87.94 56.78 122.51
  Q 43.59 147.68 48.44 176.62
  Q 48.10 176.83 47.53 176.71
  C 41.65 143.99 54.69 111.09 81.23 91.86
  C 120.42 63.47 174.14 72.49 202.04 111.83
  Z"
/>
<path fill="#ffffff" d="
  M 194.94 116.71
  L 194.47 117.34
  Q 172.71 94.60 143.10 92.83
  C 101.69 90.35 66.77 120.33 62.53 161.42
  Q 62.31 161.46 62.11 161.40
  A 0.45 0.44 10.9 0 1 61.81 160.97
  Q 61.82 160.55 61.64 160.19
  Q 65.26 128.29 89.26 108.52
  C 108.62 92.57 135.02 87.12 159.15 94.10
  C 172.52 97.96 185.75 105.80 194.94 116.71
  Z"
/>
<path fill="#ffffff" d="
  M 169.46 110.75
  L 169.31 111.76
  C 134.60 98.53 97.39 114.23 82.55 148.14
  Q 81.57 147.70 81.93 146.96
  Q 93.24 121.72 117.77 111.31
  Q 142.95 100.61 169.46 110.75
  Z"
/>
<path fill="#f7f8cd" fill-opacity="0.635" d="
  M 169.31 111.76
  L 169.46 110.75
  Q 171.99 111.88 174.46 113.12
  Q 194.76 123.26 205.23 143.42
  A 0.45 0.44 -29.6 0 1 205.06 144.01
  L 204.81 144.15
  A 0.27 0.26 61.2 0 1 204.44 144.04
  Q 192.81 121.45 169.31 111.76
  Z"
/>
<path fill="#f7f8cd" fill-opacity="0.635" d="
  M 201.33 112.38
  Q 201.58 112.37 202.04 111.83
  Q 207.88 119.47 210.48 126.26
  Q 211.86 129.86 213.25 133.47
  Q 214.82 137.55 215.37 140.84
  Q 216.37 146.68 216.71 148.62
  C 217.62 153.80 217.21 158.18 217.18 163.26
  A 0.15 0.15 0.0 0 1 217.02 163.41
  L 217.01 163.41
  A 0.09 0.09 0.0 0 1 216.92 163.32
  L 216.79 152.56
  A 0.56 0.26 -70.1 0 0 216.78 152.45
  L 215.41 144.33
  A 1.62 0.96 69.9 0 0 215.36 144.11
  C 213.84 139.39 212.80 134.64 210.96 130.18
  Q 207.09 120.80 201.33 112.38
  Z"
/>
<path fill="#f7f8cd" fill-opacity="0.635" d="
  M 194.47 117.34
  L 194.94 116.71
  Q 204.46 126.79 209.33 139.87
  A 0.33 0.33 0.0 0 1 209.14 140.30
  L 209.07 140.32
  A 0.33 0.33 0.0 0 1 208.64 140.13
  Q 203.48 127.48 194.47 117.34
  Z"
/>
<path fill="#ffffff" d="
  M 174.85 125.02
  L 174.79 125.88
  Q 174.73 125.71 174.48 125.87
  A 0.38 0.38 0.0 0 0 174.29 126.23
  Q 174.58 130.91 173.43 135.43
  Q 173.73 135.70 173.04 135.94
  Q 171.70 138.92 169.52 141.07
  A 2.98 2.97 36.0 0 1 166.08 141.61
  Q 164.58 140.85 163.87 140.57
  A 1.35 1.35 0.0 0 0 162.21 142.52
  Q 162.59 143.15 163.77 142.94
  Q 163.71 143.47 164.15 143.63
  Q 163.97 143.62 163.88 143.63
  A 0.09 0.09 0.0 0 0 163.82 143.77
  L 174.65 156.04
  A 0.71 0.71 0.0 0 0 175.53 156.19
  Q 187.50 149.27 197.02 140.48
  A 0.18 0.18 0.0 0 1 197.32 140.65
  Q 197.17 141.53 196.89 141.96
  Q 189.73 153.31 179.22 161.49
  Q 177.92 162.50 174.72 163.85
  A 1.13 1.13 0.0 0 1 173.79 163.83
  Q 166.85 160.53 161.69 155.49
  A 0.33 0.32 31.9 0 0 161.16 155.61
  C 158.83 161.97 154.84 166.00 148.98 172.76
  A 0.46 0.45 -59.2 0 0 149.16 173.48
  C 157.27 176.67 170.60 182.54 174.05 190.86
  A 2.18 2.17 36.7 0 1 174.21 191.94
  C 173.60 198.46 166.53 204.11 161.30 207.58
  Q 155.03 211.74 141.22 220.52
  A 0.14 0.14 0.0 0 1 141.03 220.32
  Q 147.74 210.77 151.52 205.78
  C 154.97 201.22 159.23 196.64 164.71 194.23
  A 0.28 0.28 0.0 0 0 164.70 193.72
  C 156.06 190.06 147.46 187.04 138.37 186.75
  A 1.39 1.38 -65.3 0 0 137.38 187.12
  Q 132.96 191.26 130.00 194.74
  C 128.48 196.51 125.40 198.22 122.65 199.21
  Q 116.76 201.33 100.89 208.12
  Q 86.54 214.25 76.90 222.80
  A 1.15 1.14 -8.6 0 0 76.57 223.24
  L 76.14 224.19
  A 0.29 0.29 0.0 0 1 75.58 224.07
  Q 75.58 223.78 75.90 223.14
  C 83.25 208.74 94.45 200.41 109.55 195.07
  C 115.78 192.87 120.17 187.97 123.24 182.16
  A 2.66 2.64 -32.0 0 0 123.55 180.84
  C 123.44 174.14 127.32 172.77 132.35 170.38
  A 4.54 4.45 -78.3 0 0 133.36 169.70
  C 137.86 165.61 139.11 158.18 140.57 152.15
  A 0.41 0.41 0.0 0 0 139.93 151.73
  Q 129.65 159.58 125.55 171.81
  A 0.35 0.35 0.0 0 1 125.07 172.01
  L 124.83 171.91
  A 0.13 0.13 0.0 0 1 124.76 171.75
  Q 129.12 158.39 140.57 150.43
  A 1.39 1.36 -6.1 0 0 141.01 149.90
  L 144.22 142.78
  A 0.54 0.54 0.0 0 0 143.89 142.05
  Q 137.87 140.16 131.93 141.16
  A 2.77 2.74 -66.6 0 0 130.86 141.59
  Q 112.35 154.19 108.85 176.40
  L 108.07 176.19
  Q 111.27 154.67 128.63 142.03
  A 0.22 0.22 0.0 0 0 128.45 141.64
  C 121.07 143.54 114.60 146.46 108.48 151.08
  Q 105.77 153.13 101.98 155.75
  A 0.32 0.32 0.0 0 1 101.54 155.29
  Q 111.50 142.04 125.90 134.91
  C 129.80 132.98 138.62 134.07 143.25 134.64
  A 1.66 1.33 -40.1 0 0 143.64 134.63
  L 155.73 132.41
  A 0.42 0.42 0.0 0 0 156.07 132.02
  Q 156.52 124.59 159.87 122.12
  A 0.34 0.33 -58.3 0 0 159.73 121.52
  Q 151.45 120.14 142.00 121.82
  Q 114.84 126.66 100.86 150.09
  Q 100.16 150.31 100.17 149.43
  C 112.90 127.85 135.71 117.29 160.74 120.82
  A 3.47 3.36 41.5 0 0 162.06 120.76
  Q 167.18 119.51 170.68 121.58
  Q 171.75 122.21 174.85 125.02
  Z
  M 156.13 135.34
  L 156.09 134.08
  A 0.41 0.41 0.0 0 0 155.67 133.69
  L 155.54 133.69
  A 8.48 1.04 -1.6 0 0 147.09 134.97
  A 8.48 1.04 -1.6 0 0 155.60 135.77
  L 155.73 135.77
  A 0.41 0.41 0.0 0 0 156.13 135.34
  Z"
/>
<path fill="#f7f8cd" fill-opacity="0.635" d="
  M 174.79 125.88
  L 174.85 125.02
  Q 187.02 130.09 195.66 140.13
  A 0.40 0.39 -41.3 0 1 195.62 140.68
  L 195.39 140.88
  A 0.15 0.15 0.0 0 1 195.18 140.87
  Q 186.49 131.26 174.79 125.88
  Z"
/>
<path fill="#f7f8cd" fill-opacity="0.635" d="
  M 173.04 135.94
  Q 173.73 135.70 173.43 135.43
  Q 175.71 135.72 178.32 136.93
  Q 185.42 140.22 190.60 144.81
  A 0.28 0.27 -58.5 0 1 190.67 145.13
  L 190.51 145.48
  A 0.13 0.13 0.0 0 1 190.31 145.52
  C 187.34 143.14 182.70 140.05 178.29 138.21
  Q 175.76 137.15 173.04 135.94
  Z"
/>
<path fill="#f7f8cd" fill-opacity="0.635" d="
  M 204.93 156.10
  Q 201.66 148.98 197.01 143.03
  A 0.34 0.34 0.0 0 1 197.05 142.57
  L 197.32 142.34
  A 0.13 0.12 49.3 0 1 197.51 142.36
  Q 202.36 148.48 205.23 155.78
  Q 205.28 155.90 205.24 156.06
  A 0.17 0.16 -51.9 0 1 204.93 156.10
  Z"
/>
<path fill="#f7f8cd" fill-opacity="0.635" d="
  M 164.15 143.63
  Q 163.71 143.47 163.77 142.94
  Q 175.53 142.32 185.72 148.40
  A 0.33 0.32 39.8 0 1 185.77 148.92
  L 185.46 149.19
  A 0.27 0.27 0.0 0 1 185.15 149.23
  Q 175.20 144.06 164.15 143.63
  Z"
/>
<path fill="#f7f8cd" fill-opacity="0.635" d="
  M 81.93 146.96
  Q 81.57 147.70 82.55 148.14
  Q 71.42 177.55 85.34 205.53
  A 0.24 0.23 -27.7 0 1 85.24 205.84
  L 85.23 205.84
  A 0.22 0.21 62.2 0 1 84.95 205.75
  L 82.04 200.50
  A 2.61 2.20 -73.9 0 1 81.87 200.12
  C 80.25 195.29 78.35 190.95 77.52 185.84
  C 75.37 172.49 76.29 159.31 81.93 146.96
  Z"
/>
<rect fill="#f7f8cd" fill-opacity="0.635" x="-0.32" y="-5.44" transform="translate(197.00,152.12) rotate(-38.0)" width="0.64" height="10.88" rx="0.26"/>
<path fill="#f7f8cd" fill-opacity="0.635" d="
  M 100.17 149.43
  Q 100.16 150.31 100.86 150.09
  Q 92.32 165.63 93.71 183.98
  Q 94.31 191.88 96.60 197.90
  A 0.33 0.33 0.0 0 1 96.37 198.33
  L 95.89 198.47
  A 0.16 0.16 0.0 0 1 95.70 198.36
  L 92.56 186.93
  A 5.54 5.21 -54.6 0 1 92.36 185.47
  L 92.32 172.23
  A 1.60 1.49 52.4 0 1 92.36 171.80
  C 93.95 163.41 95.92 156.29 100.17 149.43
  Z"
/>
<path fill="#f7f8cd" fill-opacity="0.635" d="
  M 208.23 152.91
  Q 208.02 152.64 208.00 152.33
  A 0.25 0.25 0.0 0 1 208.46 152.18
  Q 208.62 152.42 208.66 152.72
  A 0.25 0.24 -68.3 0 1 208.23 152.91
  Z"
/>
<path fill="#f7f8cd" fill-opacity="0.635" d="
  M 212.78 151.97
  C 213.39 152.91 212.89 153.85 213.18 154.50
  Q 213.30 154.75 213.23 154.85
  A 0.06 0.05 -31.7 0 1 213.13 154.83
  L 212.62 152.03
  A 0.09 0.09 0.0 0 1 212.78 151.97
  Z"
/>
<path fill="#f7f8cd" fill-opacity="0.635" d="
  M 209.00 154.23
  Q 208.83 154.05 208.80 153.87
  A 0.11 0.09 40.7 0 1 209.00 153.87
  Q 209.02 154.04 209.00 154.23
  Z"
/>
<path fill="#f7f8cd" fill-opacity="0.635" d="
  M 209.00 154.23
  Q 209.19 154.42 209.21 154.62
  A 0.11 0.10 43.3 0 1 209.00 154.61
  Q 208.98 154.43 209.00 154.23
  Z"
/>
<ellipse fill="#f7f8cd" fill-opacity="0.635" cx="0.00" cy="0.00" transform="translate(205.97,157.89) rotate(-105.1)" rx="0.60" ry="0.17"/>
<path fill="#f7f8cd" fill-opacity="0.635" d="
  M 61.64 160.19
  Q 61.82 160.55 61.81 160.97
  A 0.45 0.44 10.9 0 0 62.11 161.40
  Q 62.31 161.46 62.53 161.42
  C 62.72 164.36 62.37 167.68 62.45 170.19
  Q 62.78 181.07 65.91 190.92
  Q 68.57 199.31 74.23 208.66
  A 0.25 0.25 0.0 0 1 74.14 209.01
  L 73.87 209.17
  A 0.04 0.03 52.0 0 1 73.83 209.16
  Q 70.32 204.33 67.73 198.28
  Q 61.32 183.33 61.13 166.56
  Q 61.10 163.96 61.64 160.19
  Z"
/>
<path fill="#ffffff" d="
  M 320.91 170.63
  L 325.52 170.63
  A 0.22 0.21 14.5 0 1 325.71 170.95
  L 321.76 177.79
  A 0.91 0.90 -75.0 0 0 322.54 179.15
  L 330.99 179.15
  A 0.38 0.38 0.0 0 1 331.31 179.72
  L 328.93 183.65
  A 0.82 0.82 0.0 0 1 328.10 184.03
  Q 327.65 183.95 321.70 183.92
  C 319.32 183.91 318.30 184.02 316.93 186.43
  Q 312.68 193.88 311.12 196.67
  A 0.83 0.83 0.0 0 0 311.85 197.90
  L 320.65 197.90
  A 0.14 0.13 15.0 0 1 320.77 198.10
  L 318.28 202.42
  A 0.43 0.43 0.0 0 1 317.89 202.64
  Q 309.43 202.42 308.06 202.25
  C 303.71 201.70 305.30 197.31 306.74 194.80
  Q 312.03 185.64 312.69 184.40
  A 0.40 0.39 -76.0 0 0 312.35 183.82
  L 305.64 183.82
  A 0.10 0.10 0.0 0 1 305.56 183.67
  L 308.09 179.28
  A 0.41 0.41 0.0 0 1 308.44 179.08
  L 315.31 179.08
  A 0.76 0.74 -74.2 0 0 315.96 178.71
  L 320.47 170.89
  A 0.50 0.49 13.9 0 1 320.91 170.63
  Z"
/>
<path fill="#ffffff" d="
  M 493.01 170.98
  L 489.06 177.81
  A 0.91 0.90 -75.0 0 0 489.84 179.17
  L 498.28 179.17
  A 0.38 0.37 -74.5 0 1 498.60 179.74
  L 496.22 183.67
  A 0.82 0.81 -69.3 0 1 495.39 184.05
  Q 494.94 183.97 489.00 183.94
  C 486.62 183.93 485.60 184.04 484.23 186.44
  Q 479.99 193.88 478.43 196.67
  A 0.83 0.83 0.0 0 0 479.16 197.90
  L 487.95 197.90
  A 0.14 0.13 15.0 0 1 488.07 198.10
  L 485.58 202.42
  A 0.43 0.43 0.0 0 1 485.19 202.64
  Q 476.74 202.42 475.37 202.25
  C 471.02 201.70 472.61 197.31 474.05 194.80
  Q 479.34 185.65 480.00 184.41
  A 0.40 0.39 -76.0 0 0 479.66 183.83
  L 472.95 183.83
  A 0.10 0.10 0.0 0 1 472.87 183.68
  L 475.40 179.30
  A 0.41 0.41 0.0 0 1 475.75 179.10
  L 482.62 179.10
  A 0.76 0.74 -74.2 0 0 483.26 178.73
  L 487.77 170.92
  A 0.50 0.49 13.9 0 1 488.21 170.66
  L 492.82 170.66
  A 0.22 0.21 14.6 0 1 493.01 170.98
  Z"
/>
<path fill="#f7f8cd" fill-opacity="0.635" d="
  M 108.07 176.19
  L 108.85 176.40
  Q 107.89 183.21 108.44 185.50
  Q 109.27 189.01 109.18 192.60
  A 0.20 0.20 0.0 0 1 108.98 192.80
  L 108.68 192.80
  A 0.02 0.01 0.0 0 1 108.66 192.79
  Q 108.37 189.97 107.97 187.24
  Q 107.16 181.64 108.07 176.19
  Z"
/>
<path fill="#f7f8cd" fill-opacity="0.635" d="
  M 48.44 176.62
  L 50.93 186.63
  A 0.78 0.69 -68.0 0 0 50.99 186.80
  Q 52.22 189.65 53.26 192.82
  Q 54.13 195.47 55.74 198.51
  Q 61.01 208.50 68.56 217.74
  A 0.14 0.04 66.8 0 1 68.58 217.94
  Q 68.52 217.88 68.48 217.88
  A 0.21 0.19 -28.1 0 1 68.31 217.84
  Q 65.29 215.02 61.64 209.64
  Q 51.21 194.27 47.53 176.71
  Q 48.10 176.83 48.44 176.62
  Z"
/>
<path fill="#ffffff" d="
  M 178.53 202.36
  A 0.17 0.17 0.0 0 1 178.39 202.10
  L 180.85 197.84
  A 0.49 0.48 15.1 0 1 181.27 197.60
  L 200.77 197.63
  A 3.08 3.08 0.0 0 0 203.44 196.11
  L 204.39 194.45
  A 1.19 1.18 -74.5 0 0 203.39 192.66
  Q 202.53 192.65 191.94 192.68
  Q 189.75 192.69 188.25 192.24
  A 2.56 2.48 15.1 0 1 186.47 189.27
  C 187.39 185.39 189.99 181.07 193.47 179.55
  Q 195.44 178.68 199.61 178.71
  Q 203.28 178.73 217.52 178.74
  A 0.15 0.15 0.0 0 1 217.65 178.97
  L 215.12 183.35
  A 0.55 0.54 -74.4 0 1 214.65 183.62
  L 196.35 183.59
  A 3.81 3.80 -74.7 0 0 193.06 185.47
  L 192.68 186.13
  A 1.18 1.18 0.0 0 0 193.72 187.91
  Q 205.30 187.79 207.23 188.00
  C 209.86 188.31 211.32 189.79 210.27 192.61
  C 208.39 197.67 205.13 202.35 199.19 202.37
  Q 189.56 202.40 178.53 202.36
  Z"
/>
<path fill="#ffffff" d="
  M 323.13 202.38
  A 0.17 0.17 0.0 0 1 322.98 202.12
  L 325.43 197.86
  A 0.49 0.48 15.0 0 1 325.85 197.62
  L 345.33 197.62
  A 3.08 3.08 0.0 0 0 347.99 196.09
  L 348.94 194.43
  A 1.19 1.18 -74.6 0 0 347.93 192.65
  Q 347.08 192.64 336.50 192.69
  Q 334.31 192.70 332.81 192.26
  A 2.56 2.48 15.0 0 1 331.03 189.29
  C 331.94 185.42 334.53 181.10 338.00 179.57
  Q 339.97 178.70 344.14 178.72
  Q 347.80 178.74 362.02 178.72
  A 0.15 0.15 0.0 0 1 362.15 178.95
  L 359.63 183.33
  A 0.55 0.54 -74.5 0 1 359.16 183.60
  L 340.89 183.60
  A 3.80 3.79 -74.8 0 0 337.61 185.49
  L 337.23 186.15
  A 1.18 1.18 0.0 0 0 338.27 187.92
  Q 349.83 187.78 351.76 187.99
  C 354.39 188.29 355.85 189.77 354.81 192.59
  C 352.94 197.64 349.69 202.32 343.76 202.35
  Q 334.14 202.40 323.13 202.38
  Z"
/>
<path fill="#ffffff" d="
  M 451.25 187.86
  Q 451.66 187.84 451.97 187.94
  L 463.11 188.26
  A 1.34 1.31 -28.4 0 1 463.74 188.44
  C 468.35 191.22 460.88 200.52 457.70 201.68
  Q 455.65 202.42 451.23 202.40
  Q 445.64 202.36 433.17 202.38
  A 0.16 0.15 -74.4 0 1 433.04 202.14
  L 435.50 197.87
  A 0.52 0.51 -74.4 0 1 435.94 197.62
  L 455.18 197.62
  A 3.55 3.53 14.9 0 0 458.25 195.85
  L 459.10 194.37
  A 1.19 1.19 0.0 0 0 458.03 192.59
  Q 450.39 192.83 444.51 192.59
  C 438.45 192.35 442.06 186.17 443.65 183.64
  Q 446.63 178.89 452.25 178.75
  Q 454.41 178.70 472.21 178.74
  A 0.11 0.11 0.0 0 1 472.31 178.91
  L 469.70 183.42
  A 0.41 0.38 13.6 0 1 469.35 183.62
  Q 451.88 183.60 451.26 183.55
  Q 448.33 183.32 447.11 187.02
  A 0.53 0.53 0.0 0 0 447.59 187.72
  L 451.25 187.86
  Z"
/>
<path fill="#ffffff" d="
  M 209.38 210.75
  L 206.08 210.75
  A 0.51 0.51 0.0 0 1 205.64 209.99
  L 223.30 179.40
  A 0.86 0.84 -74.3 0 1 224.03 178.98
  Q 235.79 178.92 243.50 178.99
  Q 245.73 179.01 246.90 180.11
  A 1.54 1.51 17.8 0 1 247.36 180.98
  Q 247.68 183.02 246.64 184.93
  Q 243.04 191.55 239.53 197.32
  Q 236.39 202.48 230.25 202.42
  Q 220.13 202.32 215.75 202.41
  A 0.99 0.98 -75.5 0 0 214.91 202.91
  L 210.89 209.88
  A 1.75 1.73 14.8 0 1 209.38 210.75
  Z
  M 225.83 184.07
  L 218.38 196.98
  A 0.43 0.43 0.0 0 0 218.76 197.62
  L 232.71 197.62
  A 2.77 2.77 0.0 0 0 235.11 196.23
  L 241.56 185.06
  A 0.91 0.91 0.0 0 0 240.77 183.69
  L 226.50 183.69
  A 0.79 0.78 -74.2 0 0 225.83 184.07
  Z"
/>
<path fill="#ffffff" d="
  M 279.00 180.73
  Q 279.91 182.28 278.65 184.63
  Q 275.27 190.95 271.64 197.13
  Q 270.06 199.83 267.93 201.07
  Q 265.80 202.32 262.67 202.38
  Q 255.50 202.53 248.34 202.38
  Q 245.67 202.33 244.77 200.79
  Q 243.86 199.24 245.12 196.88
  Q 248.50 190.57 252.13 184.39
  Q 253.71 181.69 255.84 180.44
  Q 257.97 179.19 261.10 179.13
  Q 268.26 178.99 275.42 179.13
  Q 278.09 179.18 279.00 180.73
  Z
  M 258.12 184.06
  Q 257.34 184.51 256.86 185.34
  Q 253.74 190.74 250.62 196.13
  Q 250.27 196.73 250.52 197.16
  Q 250.76 197.59 251.45 197.59
  Q 257.68 197.63 263.92 197.68
  Q 264.88 197.68 265.66 197.24
  Q 266.45 196.79 266.93 195.96
  Q 270.04 190.56 273.16 185.16
  Q 273.51 184.56 273.27 184.14
  Q 273.02 183.71 272.33 183.71
  Q 266.10 183.67 259.86 183.62
  Q 258.90 183.61 258.12 184.06
  Z"
/>
<path fill="#ffffff" d="
  M 278.71 202.44
  L 273.88 202.44
  A 0.13 0.13 0.0 0 1 273.77 202.25
  Q 281.98 187.67 284.36 183.63
  C 286.53 179.96 289.96 178.87 294.77 178.96
  Q 295.73 178.98 305.28 178.93
  A 0.14 0.14 0.0 0 1 305.40 179.14
  L 302.96 183.38
  A 0.62 0.62 0.0 0 1 302.43 183.68
  L 291.47 183.68
  A 2.94 2.93 -74.9 0 0 288.93 185.15
  L 279.09 202.22
  A 0.44 0.42 13.7 0 1 278.71 202.44
  Z"
/>
<path fill="#ffffff" d="
  M 391.34 202.21
  L 401.30 184.97
  A 0.85 0.84 -75.0 0 0 400.57 183.70
  L 391.44 183.70
  A 4.26 4.26 0.0 0 0 387.75 185.83
  L 378.24 202.30
  A 0.33 0.32 13.4 0 1 377.95 202.47
  L 373.28 202.47
  A 0.20 0.20 0.0 0 1 373.11 202.17
  L 382.58 185.77
  A 1.39 1.39 0.0 0 0 381.37 183.69
  L 371.11 183.69
  A 0.86 0.86 0.0 0 0 370.37 184.11
  L 359.87 202.30
  A 0.28 0.28 0.0 0 1 359.62 202.45
  L 354.90 202.45
  A 0.19 0.19 0.0 0 1 354.74 202.17
  L 367.88 179.42
  A 0.77 0.76 -76.4 0 1 368.51 179.03
  Q 375.74 178.82 383.69 179.08
  Q 386.02 179.16 387.02 181.22
  A 0.54 0.54 0.0 0 0 387.86 181.39
  C 391.59 178.11 396.80 178.90 402.99 178.97
  C 407.21 179.02 408.06 181.84 406.24 185.22
  Q 403.71 189.91 396.66 202.23
  A 0.41 0.38 13.6 0 1 396.31 202.43
  L 391.47 202.43
  A 0.15 0.15 0.0 0 1 391.34 202.21
  Z"
/>
<path fill="#ffffff" d="
  M 413.52 183.68
  A 0.15 0.15 0.0 0 1 413.39 183.45
  L 415.78 179.29
  A 0.63 0.60 13.6 0 1 416.30 178.99
  Q 430.24 178.92 434.24 178.99
  C 441.31 179.13 437.58 185.26 435.79 188.28
  Q 433.51 192.14 428.05 201.97
  A 0.94 0.92 -75.0 0 1 427.24 202.45
  Q 408.12 202.51 406.99 202.37
  C 404.91 202.12 403.09 200.74 403.89 198.27
  C 405.69 192.72 408.91 188.24 414.95 188.15
  Q 423.31 188.02 429.45 188.16
  A 2.08 2.07 -74.0 0 0 431.29 187.13
  L 432.47 185.09
  A 0.94 0.94 0.0 0 0 431.65 183.68
  L 413.52 183.68
  Z
  M 418.54 197.80
  Q 424.34 197.80 424.50 197.78
  A 1.84 1.81 -67.8 0 0 425.46 197.37
  Q 426.56 196.45 427.67 193.58
  A 0.48 0.47 -76.6 0 0 427.28 192.94
  Q 426.73 192.88 418.75 192.88
  Q 412.95 192.88 412.79 192.90
  A 1.84 1.81 -67.8 0 0 411.83 193.31
  Q 410.73 194.23 409.62 197.10
  A 0.48 0.47 -76.6 0 0 410.01 197.74
  Q 410.56 197.80 418.54 197.80
  Z"
/>
<path fill="#ffffff" d="
  M 521.49 193.46
  L 501.58 193.46
  A 1.87 1.86 -74.8 0 0 499.97 194.39
  L 498.73 196.54
  A 0.91 0.91 0.0 0 0 499.51 197.91
  L 518.45 197.91
  A 0.18 0.18 0.0 0 1 518.61 198.18
  L 516.14 202.45
  A 0.47 0.46 16.0 0 1 515.72 202.68
  Q 508.57 202.45 496.54 202.42
  C 492.81 202.42 491.77 199.54 493.46 196.47
  Q 496.68 190.65 500.30 184.55
  C 503.05 179.92 505.96 179.05 511.39 179.06
  Q 521.83 179.08 524.26 179.18
  C 528.61 179.36 527.74 183.08 526.31 185.80
  Q 524.55 189.16 522.36 192.96
  A 1.01 1.00 15.0 0 1 521.49 193.46
  Z
  M 503.54 187.80
  A 0.51 0.51 0.0 0 0 503.98 188.57
  L 518.35 188.57
  A 1.94 1.94 0.0 0 0 520.03 187.60
  L 521.49 185.08
  A 0.94 0.93 -75.1 0 0 520.68 183.68
  L 507.54 183.68
  A 2.81 2.80 -75.0 0 0 505.11 185.09
  L 503.54 187.80
  Z"
/>
<path fill="#ffffff" d="
  M 521.98 202.26
  Q 530.20 187.67 532.59 183.62
  C 534.76 179.95 538.19 178.86 543.01 178.95
  Q 543.97 178.97 553.53 178.93
  A 0.14 0.14 0.0 0 1 553.65 179.14
  L 551.20 183.38
  A 0.62 0.62 0.0 0 1 550.67 183.68
  L 539.70 183.68
  A 2.94 2.93 -74.9 0 0 537.16 185.15
  L 527.30 202.23
  A 0.44 0.42 13.7 0 1 526.92 202.45
  L 522.09 202.45
  A 0.13 0.13 0.0 0 1 521.98 202.26
  Z"
/>
<path fill="#f7f8cd" fill-opacity="0.635" d="
  M 451.97 187.94
  Q 451.66 187.84 451.25 187.86
  Q 451.69 187.83 451.97 187.94
  Z"
/>
</svg>
