<svg xmlns="http://www.w3.org/2000/svg" version="1.1" viewBox="0.00 0.00 600.00 300.00">
<path fill="#ffffff" d="
  M 360.34 119.43
  A 0.25 0.25 0.0 0 1 360.59 119.18
  L 367.65 119.18
  A 0.28 0.28 0.0 0 1 367.93 119.46
  L 367.93 135.35
  A 0.43 0.42 -4.1 0 0 368.42 135.77
  Q 374.48 134.92 378.49 135.20
  C 390.23 136.01 395.94 144.56 395.80 155.72
  C 395.67 166.98 388.22 175.18 376.83 175.56
  Q 369.39 175.80 360.96 174.41
  A 0.74 0.74 0.0 0 1 360.34 173.68
  L 360.34 119.43
  Z
  M 367.58 141.81
  L 367.48 168.81
  A 1.24 1.24 0.0 0 0 368.72 170.06
  L 375.32 170.08
  A 12.55 12.40 -89.8 0 0 387.76 157.58
  L 387.78 153.20
  A 12.55 12.40 -89.8 0 0 375.42 140.60
  L 368.82 140.58
  A 1.24 1.24 0.0 0 0 367.58 141.81
  Z"
/>
<path fill="#ffffff" d="
  M 546.47 119.49
  A 0.31 0.31 0.0 0 1 546.78 119.18
  L 553.33 119.18
  A 0.26 0.26 0.0 0 1 553.59 119.44
  L 553.59 173.77
  A 0.59 0.58 84.7 0 1 553.12 174.35
  Q 546.78 175.62 539.01 175.69
  C 528.59 175.77 520.00 170.37 518.19 159.56
  C 516.56 149.83 520.47 139.01 530.56 135.87
  Q 538.12 133.51 545.98 135.57
  A 0.39 0.39 0.0 0 0 546.47 135.19
  L 546.47 119.49
  Z
  M 546.12 168.65
  L 546.12 142.43
  A 1.41 1.41 0.0 0 0 544.71 141.02
  L 538.40 141.02
  A 12.78 12.50 -90.0 0 0 525.90 153.80
  L 525.90 157.28
  A 12.78 12.50 90.0 0 0 538.40 170.06
  L 544.71 170.06
  A 1.41 1.41 0.0 0 0 546.12 168.65
  Z"
/>
<path fill="#ffffff" d="
  M 222.89 122.30
  L 222.89 135.66
  A 0.45 0.45 0.0 0 0 223.34 136.11
  L 233.30 136.11
  A 0.52 0.52 0.0 0 1 233.82 136.63
  L 233.82 141.15
  A 0.51 0.51 0.0 0 1 233.31 141.66
  L 223.29 141.66
  A 0.60 0.59 -0.0 0 0 222.69 142.25
  L 222.69 166.39
  A 1.37 1.31 -59.5 0 0 222.83 166.99
  Q 223.83 169.04 226.44 169.12
  Q 230.15 169.23 233.34 169.13
  A 0.46 0.46 0.0 0 1 233.81 169.59
  L 233.81 174.68
  A 0.45 0.45 0.0 0 1 233.37 175.13
  Q 226.02 175.21 222.46 174.97
  Q 215.45 174.49 215.46 166.78
  Q 215.47 149.63 215.48 142.28
  A 0.63 0.63 0.0 0 0 214.85 141.65
  L 207.51 141.65
  A 0.37 0.37 0.0 0 1 207.14 141.28
  L 207.14 136.10
  A 0.38 0.38 0.0 0 1 207.52 135.72
  L 214.89 135.72
  A 0.57 0.57 0.0 0 0 215.46 135.15
  L 215.46 124.64
  A 0.32 0.32 0.0 0 1 215.69 124.33
  L 222.69 122.16
  A 0.16 0.15 -8.7 0 1 222.89 122.30
  Z"
/>
<path fill="#ffffff" d="
  M 94.60 171.89
  A 0.47 0.46 -67.8 0 0 94.26 172.04
  Q 87.23 179.42 77.51 180.55
  Q 57.62 182.88 48.75 165.71
  Q 46.70 161.74 46.39 155.65
  C 45.53 138.85 60.01 125.26 76.49 126.61
  Q 84.62 127.28 91.82 132.66
  A 1.19 1.18 -31.3 0 0 92.74 132.88
  Q 101.56 131.31 110.52 132.85
  A 1.52 1.47 30.4 0 0 111.68 132.57
  Q 121.56 125.09 133.22 126.76
  C 145.35 128.50 153.25 136.13 155.77 148.31
  Q 156.07 149.77 156.62 156.20
  A 7.53 6.91 -46.3 0 1 156.59 157.67
  C 155.02 170.01 145.65 178.72 133.54 180.56
  Q 119.34 182.71 108.48 172.20
  A 1.10 1.08 66.7 0 0 107.72 171.89
  L 94.60 171.89
  Z
  M 91.62 171.71
  A 0.45 0.45 0.0 0 0 91.39 170.93
  Q 85.71 169.97 81.54 167.73
  A 1.47 1.45 -40.6 0 0 80.31 167.65
  Q 73.59 170.18 68.60 168.42
  C 60.23 165.47 56.07 156.11 61.01 148.24
  C 65.63 140.89 74.84 139.70 82.05 143.91
  Q 83.01 144.47 86.27 148.04
  Q 90.59 152.78 98.28 153.03
  A 0.33 0.32 -5.7 0 0 98.60 152.63
  C 95.30 137.79 83.06 129.70 68.14 132.28
  C 56.29 134.34 47.16 145.99 48.86 158.45
  C 50.39 169.64 60.05 178.29 71.47 178.81
  Q 83.45 179.37 91.62 171.71
  Z
  M 111.08 171.96
  Q 119.29 179.59 131.28 178.99
  C 142.70 178.42 152.34 169.73 153.82 158.52
  C 155.47 146.05 146.29 134.42 134.42 132.41
  C 119.48 129.89 107.27 138.03 104.02 152.90
  A 0.33 0.32 5.5 0 0 104.35 153.29
  Q 112.04 153.01 116.34 148.25
  Q 119.59 144.67 120.55 144.10
  C 127.75 139.86 136.97 141.02 141.62 148.35
  C 146.60 156.21 142.47 165.59 134.11 168.58
  Q 129.12 170.36 122.39 167.85
  A 1.48 1.45 40.4 0 0 121.16 167.94
  Q 116.99 170.20 111.31 171.18
  A 0.45 0.45 0.0 0 0 111.08 171.96
  Z
  M 101.34 149.93
  Q 101.53 149.93 101.67 149.83
  A 0.29 0.29 0.0 0 0 101.80 149.66
  Q 103.52 143.94 105.10 141.55
  Q 106.39 139.61 106.94 138.64
  A 0.46 0.46 0.0 0 0 106.60 137.96
  Q 103.90 137.59 101.21 137.62
  Q 98.53 137.64 95.84 138.07
  A 0.46 0.46 0.0 0 0 95.51 138.76
  Q 96.08 139.72 97.41 141.63
  Q 99.04 143.99 100.88 149.67
  A 0.29 0.29 0.0 0 0 101.01 149.84
  Q 101.16 149.93 101.34 149.93
  Z
  M 75.17 162.41
  Q 72.05 159.13 72.33 153.78
  Q 72.42 152.04 72.34 143.96
  A 0.54 0.54 0.0 0 0 71.71 143.44
  Q 65.84 144.51 62.64 149.60
  Q 60.58 152.87 61.38 154.82
  Q 65.19 164.17 74.88 163.19
  A 0.46 0.46 0.0 0 0 75.17 162.41
  Z
  M 127.72 162.76
  A 0.46 0.46 0.0 0 0 128.01 163.54
  Q 137.70 164.49 141.49 155.14
  Q 142.28 153.18 140.21 149.92
  Q 137.00 144.84 131.13 143.79
  A 0.54 0.54 0.0 0 0 130.50 144.31
  Q 130.44 152.39 130.54 154.13
  Q 130.83 159.47 127.72 162.76
  Z
  M 74.59 149.44
  Q 74.10 153.98 74.50 156.13
  C 75.46 161.30 79.01 163.27 83.68 165.56
  Q 89.92 168.61 96.66 169.04
  Q 106.35 169.65 112.29 168.27
  C 117.63 167.03 127.44 163.23 128.16 157.22
  Q 128.50 154.39 128.44 148.62
  A 0.29 0.29 0.0 0 0 127.90 148.48
  Q 125.08 153.52 121.03 155.33
  Q 102.09 163.84 81.95 155.66
  Q 77.99 154.05 75.00 149.34
  A 0.23 0.22 -58.4 0 0 74.59 149.44
  Z"
/>
<path fill="#ffffff" d="
  M 171.82 168.26
  C 176.36 169.42 195.98 172.67 194.74 163.34
  C 193.68 155.45 173.24 160.80 171.46 148.07
  C 170.17 138.83 178.22 135.36 185.90 135.16
  Q 192.62 134.99 199.88 135.98
  A 0.52 0.51 3.8 0 1 200.33 136.49
  L 200.33 141.88
  A 0.38 0.38 0.0 0 1 199.86 142.25
  C 195.92 141.19 184.78 139.77 180.87 142.78
  Q 177.24 145.58 180.33 148.89
  Q 181.22 149.85 184.50 150.73
  C 189.18 151.99 198.30 152.90 201.19 158.14
  Q 203.11 161.60 202.22 165.62
  C 199.46 178.07 180.44 176.34 171.85 174.49
  A 0.70 0.70 0.0 0 1 171.30 173.81
  L 171.30 168.66
  A 0.42 0.41 7.1 0 1 171.82 168.26
  Z"
/>
<path fill="#ffffff" d="
  M 278.8309 158.1479
  A 17.75 17.75 0.0 0 1 261.0191 175.8358
  L 257.6191 175.8239
  A 17.75 17.75 0.0 0 1 239.9311 158.0121
  L 239.9491 152.8721
  A 17.75 17.75 0.0 0 1 257.7609 135.1842
  L 261.1609 135.1961
  A 17.75 17.75 0.0 0 1 278.8489 153.0079
  L 278.8309 158.1479
  Z
  M 247.82 155.35
  C 247.83 162.85 250.77 170.10 259.47 170.10
  C 268.18 170.09 271.11 162.83 271.10 155.33
  C 271.10 147.83 268.16 140.57 259.45 140.58
  C 250.75 140.59 247.82 147.84 247.82 155.35
  Z"
/>
<path fill="#ffffff" d="
  M 348.88 169.25
  A 0.41 0.41 0.0 0 1 349.36 169.65
  L 349.36 173.87
  A 0.64 0.63 -6.2 0 1 348.86 174.49
  C 331.17 178.25 313.79 175.07 314.96 152.70
  C 315.47 142.96 321.20 136.20 331.26 135.21
  C 346.06 133.76 352.60 143.18 352.40 157.16
  A 0.65 0.65 0.0 0 1 351.75 157.80
  L 323.56 157.80
  A 0.30 0.30 0.0 0 0 323.26 158.12
  C 323.88 167.10 329.62 170.23 338.30 170.15
  Q 344.25 170.09 348.88 169.25
  Z
  M 323.77 152.57
  L 343.45 152.61
  A 0.34 0.34 0.0 0 0 343.79 152.27
  L 343.79 151.00
  A 10.31 9.32 -89.9 0 0 334.49 140.67
  L 332.77 140.67
  A 10.31 9.32 -89.9 0 0 323.43 150.96
  L 323.43 152.23
  A 0.34 0.34 0.0 0 0 323.77 152.57
  Z"
/>
<path fill="#ffffff" d="
  M 455.29 150.94
  A 2.15 2.15 0.0 0 0 457.80 148.55
  L 457.39 145.39
  A 4.74 4.73 3.8 0 0 453.92 141.43
  Q 450.45 140.50 446.50 140.69
  Q 439.63 141.03 433.98 142.20
  A 0.56 0.56 0.0 0 1 433.31 141.65
  L 433.31 137.15
  A 0.85 0.83 -7.1 0 1 433.95 136.34
  Q 435.44 135.96 435.84 135.90
  C 442.86 134.94 456.48 133.60 461.84 138.73
  Q 465.06 141.82 465.20 147.03
  Q 465.47 157.17 465.29 173.95
  A 0.38 0.38 0.0 0 1 464.97 174.31
  Q 454.00 175.99 442.55 175.05
  Q 430.03 174.03 430.95 161.26
  C 431.53 153.28 438.60 151.03 445.52 150.72
  Q 452.38 150.42 455.29 150.94
  Z
  M 457.63 169.74
  L 457.65 157.30
  A 0.69 0.69 0.0 0 0 456.96 156.61
  L 446.69 156.59
  A 8.16 5.93 0.1 0 0 438.52 162.50
  L 438.52 164.46
  A 8.16 5.93 0.1 0 0 446.67 170.41
  L 456.94 170.43
  A 0.69 0.69 0.0 0 0 457.63 169.74
  Z"
/>
<path fill="#ffffff" d="
  M 482.45 139.15
  A 0.30 0.29 77.4 0 0 482.87 139.42
  C 487.95 137.09 491.60 135.55 497.08 135.13
  C 502.15 134.75 506.45 136.86 508.85 141.25
  Q 510.23 143.77 510.17 149.49
  Q 510.04 162.26 510.14 174.69
  A 0.46 0.45 90.0 0 1 509.69 175.15
  L 502.86 175.15
  A 0.45 0.44 -90.0 0 1 502.42 174.70
  Q 502.49 153.76 502.38 148.56
  C 502.15 137.66 489.15 142.38 483.37 144.91
  A 0.88 0.87 78.1 0 0 482.85 145.71
  L 482.85 174.72
  A 0.43 0.43 0.0 0 1 482.42 175.15
  L 476.01 175.15
  A 0.40 0.40 0.0 0 1 475.61 174.75
  L 475.61 136.83
  A 0.74 0.73 -0.0 0 1 476.35 136.10
  L 481.79 136.10
  A 0.66 0.65 -0.0 0 1 482.45 136.75
  L 482.45 139.15
  Z"
/>
<path fill="#ffffff" d="
  M 288.07 174.77
  L 288.07 137.11
  A 1.01 1.00 -90.0 0 1 289.07 136.10
  L 294.31 136.10
  A 0.79 0.79 0.0 0 1 295.05 137.17
  Q 294.79 137.88 294.93 138.86
  A 0.45 0.44 70.1 0 0 295.60 139.18
  Q 302.29 135.06 310.27 135.47
  A 0.59 0.59 0.0 0 1 310.83 136.06
  L 310.83 141.85
  A 0.50 0.49 -88.4 0 1 310.31 142.35
  C 305.63 142.11 300.57 142.56 296.38 144.88
  A 1.40 1.39 -14.6 0 0 295.66 146.10
  L 295.66 174.78
  A 0.35 0.35 0.0 0 1 295.31 175.13
  L 288.43 175.13
  A 0.36 0.36 0.0 0 1 288.07 174.77
  Z"
/>
<path fill="#ffffff" d="
  M 411.95 175.16
  L 405.07 175.16
  A 0.36 0.36 0.0 0 1 404.71 174.80
  L 404.70 137.11
  A 1.01 1.00 90.0 0 1 405.70 136.10
  L 410.95 136.10
  A 0.79 0.79 0.0 0 1 411.69 137.17
  Q 411.43 137.88 411.57 138.86
  A 0.45 0.44 70.1 0 0 412.24 139.18
  Q 418.93 135.06 426.92 135.47
  A 0.59 0.59 0.0 0 1 427.48 136.06
  L 427.48 141.85
  A 0.50 0.49 -88.4 0 1 426.96 142.35
  C 422.28 142.11 417.21 142.56 413.02 144.88
  A 1.40 1.39 -14.6 0 0 412.30 146.11
  L 412.30 174.81
  A 0.35 0.35 0.0 0 1 411.95 175.16
  Z"
/>
</svg>
