<svg xmlns="http://www.w3.org/2000/svg" version="1.1" viewBox="0.00 0.00 600.00 300.00">
  <circle fill="#ffffff" cx="134.03" cy="56.65" r="8.49" />
  <circle fill="#ffffff" cx="121.11" cy="76.40" r="11.43" />
  <circle fill="#ffffff" cx="117.41" cy="101.05" r="9.23" />
  <path fill="#ffffff"
    d="
  M 268.9673 133.7315
  A 16.03 16.03 0.0 0 1 252.9093 149.7335
  L 248.8293 149.7264
  A 16.03 16.03 0.0 0 1 232.8273 133.6685
  L 232.8327 130.5885
  A 16.03 16.03 0.0 0 1 248.8907 114.5865
  L 252.9707 114.5936
  A 16.03 16.03 0.0 0 1 268.9727 130.6515
  L 268.9673 133.7315
  Z
  M 250.9382 121.2201
  A 10.94 10.57 -89.8 0 0 240.3301 132.1231
  A 10.94 10.57 -89.8 0 0 250.8618 143.0999
  A 10.94 10.57 -89.8 0 0 261.4699 132.1969
  A 10.94 10.57 -89.8 0 0 250.9382 121.2201
  Z"
  />
  <path fill="#ffffff"
    d="
  M 335.54 117.69
  A 0.35 0.35 0.0 0 1 335.59 118.22
  L 330.52 123.28
  A 0.17 0.16 -49.3 0 1 330.31 123.30
  Q 325.71 119.78 321.19 122.50
  A 1.90 1.90 0.0 0 0 320.42 123.39
  C 318.29 128.44 328.21 129.23 331.02 130.84
  Q 336.70 134.10 335.52 140.77
  C 334.52 146.39 330.28 149.19 324.77 149.81
  Q 317.05 150.69 311.31 145.89
  A 0.38 0.38 0.0 0 1 311.28 145.33
  L 316.54 140.07
  A 0.14 0.13 -43.4 0 1 316.73 140.07
  Q 320.51 143.96 325.20 142.66
  C 328.33 141.79 329.40 138.83 326.46 136.73
  C 322.02 133.56 311.50 134.52 312.32 124.73
  Q 312.98 116.96 321.09 114.92
  Q 328.86 112.96 335.54 117.69
  Z"
  />
  <path fill="#ffffff"
    d="
  M 444.78 139.56
  A 0.29 0.29 0.0 0 1 445.18 139.51
  L 451.10 143.91
  A 0.26 0.25 -51.6 0 1 451.14 144.28
  Q 446.26 150.20 438.24 149.89
  C 415.14 149.00 414.69 116.53 436.76 114.47
  C 442.18 113.97 446.10 115.30 450.01 118.75
  A 0.60 0.59 45.9 0 1 450.00 119.65
  L 445.39 123.58
  A 0.86 0.85 -47.1 0 1 444.32 123.62
  Q 438.03 118.96 432.33 123.48
  C 425.88 128.57 427.71 141.55 436.60 142.87
  Q 441.65 143.62 444.78 139.56
  Z"
  />
  <path fill="#ffffff"
    d="
  M 412.54 133.71
  A 16.01 16.01 0.0 0 1 396.53 149.72
  L 392.43 149.72
  A 16.01 16.01 0.0 0 1 376.42 133.71
  L 376.42 130.61
  A 16.01 16.01 0.0 0 1 392.43 114.60
  L 396.53 114.60
  A 16.01 16.01 0.0 0 1 412.54 130.61
  L 412.54 133.71
  Z
  M 394.4800 121.2100
  A 10.95 10.56 -90.0 0 0 383.9200 132.1600
  A 10.95 10.56 -90.0 0 0 394.4800 143.1100
  A 10.95 10.56 -90.0 0 0 405.0400 132.1600
  A 10.95 10.56 -90.0 0 0 394.4800 121.2100
  Z"
  />
  <path fill="#ffffff"
    d="
  M 475.58 131.03
  L 491.46 148.59
  A 0.33 0.33 0.0 0 1 491.22 149.14
  L 481.52 149.14
  A 0.33 0.33 0.0 0 1 481.27 149.02
  L 468.22 133.70
  A 0.33 0.33 0.0 0 0 467.64 133.92
  L 467.64 148.79
  A 0.33 0.33 0.0 0 1 467.31 149.12
  L 460.54 149.12
  A 0.33 0.33 0.0 0 1 460.21 148.79
  L 460.21 115.55
  A 0.33 0.33 0.0 0 1 460.54 115.22
  L 467.31 115.22
  A 0.33 0.33 0.0 0 1 467.64 115.55
  L 467.64 127.97
  A 0.33 0.33 0.0 0 0 468.20 128.21
  L 481.11 115.30
  A 0.33 0.33 0.0 0 1 481.35 115.20
  L 490.17 115.20
  A 0.33 0.33 0.0 0 1 490.41 115.76
  L 475.59 130.58
  A 0.33 0.33 0.0 0 0 475.58 131.03
  Z"
  />
  <circle fill="#ffffff" cx="122.05" cy="125.38" r="10.13" />
  <path fill="#ffffff"
    d="
  M 208.19 127.86
  Q 214.08 127.86 214.67 127.84
  A 0.70 0.69 -1.0 0 0 215.35 127.15
  L 215.35 115.37
  A 0.15 0.14 90.0 0 1 215.49 115.22
  L 222.64 115.22
  A 0.23 0.23 0.0 0 1 222.87 115.45
  L 222.87 148.85
  A 0.27 0.26 90.0 0 1 222.61 149.12
  L 215.59 149.12
  A 0.25 0.25 0.0 0 1 215.34 148.87
  L 215.34 135.17
  A 0.67 0.67 0.0 0 0 214.70 134.50
  Q 214.08 134.47 208.19 134.47
  Q 202.31 134.47 201.68 134.50
  A 0.67 0.67 0.0 0 0 201.05 135.17
  L 201.05 148.87
  A 0.25 0.25 0.0 0 1 200.80 149.12
  L 193.78 149.12
  A 0.27 0.26 -90.0 0 1 193.52 148.85
  L 193.52 115.45
  A 0.23 0.23 0.0 0 1 193.75 115.22
  L 200.90 115.22
  A 0.15 0.14 -90.0 0 1 201.04 115.37
  L 201.04 127.15
  A 0.70 0.69 1.0 0 0 201.72 127.84
  Q 202.31 127.86 208.19 127.86
  Z"
  />
  <path fill="#ffffff"
    d="
  M 286.44 148.85
  A 0.28 0.28 0.0 0 1 286.16 149.13
  L 279.17 149.13
  A 0.30 0.30 0.0 0 1 278.87 148.83
  L 278.87 115.89
  A 0.64 0.64 0.0 0 1 279.51 115.25
  Q 284.36 115.19 289.26 115.21
  C 297.50 115.24 305.51 116.66 304.27 127.28
  C 303.22 136.38 293.76 136.35 286.96 135.79
  A 0.48 0.48 0.0 0 0 286.44 136.27
  L 286.44 148.85
  Z
  M 286.45 122.02
  L 286.41 129.08
  A 0.42 0.42 0.0 0 0 286.82 129.51
  L 291.78 129.54
  A 4.76 3.70 0.4 0 0 296.57 125.88
  L 296.57 125.38
  A 4.76 3.70 0.4 0 0 291.84 121.64
  L 286.88 121.61
  A 0.42 0.42 0.0 0 0 286.45 122.02
  Z"
  />
  <path fill="#ffffff"
    d="
  M 356.18 115.22
  Q 362.88 115.21 369.10 115.22
  A 0.49 0.49 0.0 0 1 369.59 115.71
  L 369.59 121.45
  A 0.44 0.44 0.0 0 1 369.15 121.89
  L 360.45 121.89
  A 0.52 0.52 0.0 0 0 359.93 122.41
  L 359.93 148.44
  A 0.68 0.67 89.9 0 1 359.26 149.12
  Q 358.70 149.13 356.18 149.13
  Q 353.65 149.13 353.09 149.12
  A 0.68 0.67 -89.9 0 1 352.42 148.44
  L 352.42 122.41
  A 0.52 0.52 0.0 0 0 351.90 121.89
  L 343.20 121.89
  A 0.44 0.44 0.0 0 1 342.76 121.45
  L 342.76 115.71
  A 0.49 0.49 0.0 0 1 343.25 115.22
  Q 349.48 115.21 356.18 115.22
  Z"
  />
  <circle fill="#ffffff" cx="133.37" cy="149.48" r="12.02" />
  <circle fill="#ffffff" cx="145.17" cy="176.04" r="10.55" />
  <path fill="#ffffff"
    d="
  M 321.51 174.96
  A 0.35 0.35 0.0 0 1 321.56 175.49
  L 316.47 180.53
  A 0.17 0.16 -49.1 0 1 316.26 180.55
  Q 311.67 177.02 307.14 179.72
  A 1.90 1.90 0.0 0 0 306.37 180.61
  C 304.22 185.66 314.14 186.48 316.95 188.10
  Q 322.62 191.38 321.42 198.05
  C 320.40 203.67 316.15 206.46 310.63 207.06
  Q 302.90 207.91 297.18 203.09
  A 0.38 0.38 0.0 0 1 297.15 202.53
  L 302.43 197.29
  A 0.14 0.13 -43.2 0 1 302.62 197.29
  Q 306.39 201.19 311.08 199.91
  C 314.22 199.05 315.30 196.09 312.36 193.98
  C 307.93 190.79 297.40 191.72 298.26 181.92
  Q 298.94 174.15 307.06 172.14
  Q 314.84 170.20 321.51 174.96
  Z"
  />
  <path fill="#ffffff"
    d="
  M 208.20 191.70
  Q 202.31 191.70 201.69 191.73
  A 0.67 0.67 0.0 0 0 201.05 192.40
  L 201.05 206.09
  A 0.25 0.25 0.0 0 1 200.80 206.34
  L 193.78 206.34
  A 0.27 0.26 -90.0 0 1 193.52 206.07
  L 193.53 172.68
  A 0.23 0.23 0.0 0 1 193.76 172.45
  L 200.90 172.45
  A 0.15 0.14 -90.0 0 1 201.04 172.60
  L 201.04 184.38
  A 0.70 0.69 1.0 0 0 201.72 185.07
  Q 202.32 185.09 208.20 185.09
  Q 214.08 185.09 214.67 185.07
  A 0.70 0.69 -1.0 0 0 215.35 184.38
  L 215.35 172.60
  A 0.15 0.14 -90.0 0 1 215.49 172.45
  L 222.64 172.45
  A 0.23 0.23 0.0 0 1 222.87 172.68
  L 222.87 206.08
  A 0.27 0.26 -90.0 0 1 222.61 206.35
  L 215.59 206.35
  A 0.25 0.25 0.0 0 1 215.34 206.10
  L 215.34 192.40
  A 0.67 0.67 0.0 0 0 214.70 191.73
  Q 214.08 191.70 208.20 191.70
  Z"
  />
  <path fill="#ffffff"
    d="
  M 256.48 185.63
  A 0.43 0.42 -0.1 0 1 256.91 186.05
  L 256.92 192.11
  A 0.45 0.44 89.9 0 1 256.49 192.56
  L 242.69 192.57
  A 0.45 0.45 0.0 0 0 242.24 193.02
  L 242.26 198.97
  A 0.45 0.45 0.0 0 0 242.71 199.42
  L 258.31 199.40
  A 0.35 0.34 89.9 0 1 258.65 199.75
  L 258.65 205.97
  A 0.35 0.34 89.9 0 1 258.31 206.32
  L 235.36 206.35
  A 0.58 0.58 0.0 0 1 234.78 205.78
  L 234.75 173.05
  A 0.61 0.61 0.0 0 1 235.36 172.44
  L 257.36 172.44
  A 0.41 0.40 -0.1 0 1 257.77 172.84
  L 257.78 179.08
  A 0.36 0.36 0.0 0 1 257.42 179.44
  L 242.75 179.44
  A 0.52 0.52 0.0 0 0 242.23 179.96
  L 242.24 185.12
  A 0.51 0.51 0.0 0 0 242.75 185.63
  L 256.48 185.63
  Z"
  />
  <path fill="#ffffff"
    d="
  M 269.58 206.02
  L 269.58 172.76
  A 0.32 0.32 0.0 0 1 269.90 172.44
  L 276.81 172.44
  A 0.32 0.32 0.0 0 1 277.13 172.76
  L 277.13 199.09
  A 0.32 0.32 0.0 0 0 277.45 199.41
  L 290.57 199.41
  A 0.32 0.32 0.0 0 1 290.89 199.73
  L 290.89 206.02
  A 0.32 0.32 0.0 0 1 290.57 206.34
  L 269.90 206.34
  A 0.32 0.32 0.0 0 1 269.58 206.02
  Z"
  />
  <path fill="#ffffff"
    d="
  M 353.88 192.56
  L 339.97 192.56
  A 0.39 0.39 0.0 0 0 339.58 192.95
  L 339.58 199.02
  A 0.39 0.39 0.0 0 0 339.97 199.41
  L 355.60 199.41
  A 0.39 0.39 0.0 0 1 355.99 199.80
  L 355.99 205.95
  A 0.39 0.39 0.0 0 1 355.60 206.34
  L 332.50 206.34
  A 0.39 0.39 0.0 0 1 332.11 205.95
  L 332.11 172.83
  A 0.39 0.39 0.0 0 1 332.50 172.44
  L 354.75 172.44
  A 0.39 0.39 0.0 0 1 355.14 172.83
  L 355.14 179.05
  A 0.39 0.39 0.0 0 1 354.75 179.44
  L 339.98 179.44
  A 0.39 0.39 0.0 0 0 339.59 179.83
  L 339.59 185.24
  A 0.39 0.39 0.0 0 0 339.98 185.63
  L 353.88 185.63
  A 0.39 0.39 0.0 0 1 354.27 186.02
  L 354.27 192.17
  A 0.39 0.39 0.0 0 1 353.88 192.56
  Z"
  />
  <circle fill="#ffffff" cx="143.41" cy="201.71" r="11.59" />
  <circle fill="#ffffff" cx="133.52" cy="233.37" r="18.31" />
</svg>