<svg xmlns="http://www.w3.org/2000/svg" version="1.1" viewBox="0.00 0.00 600.00 300.00">
<g stroke-width="2.00" fill="none" stroke-linecap="butt">
<path stroke="#838384" vector-effect="non-scaling-stroke" d="
  M 417.97 94.79
  Q 417.89 94.79 417.81 94.79"
/>
<path stroke="#f3f7f2" stroke-opacity="0.565" vector-effect="non-scaling-stroke" d="
  M 148.02 153.02
  L 147.56 154.46"
/>
<path stroke="#838384" vector-effect="non-scaling-stroke" d="
  M 203.79 166.27
  Q 204.23 166.06 204.49 165.73"
/>
<path stroke="#f3f7f2" stroke-opacity="0.565" vector-effect="non-scaling-stroke" d="
  M 312.12 143.78
  Q 310.94 142.24 309.26 141.66"
/>
<path stroke="#f3f7f2" stroke-opacity="0.565" vector-effect="non-scaling-stroke" d="
  M 304.33 139.22
  Q 302.24 137.78 301.04 138.10"
/>
<path stroke="#f3f7f2" stroke-opacity="0.565" vector-effect="non-scaling-stroke" d="
  M 287.66 138.32
  Q 286.30 138.67 284.95 139.75"
/>
<path stroke="#f3f7f2" stroke-opacity="0.565" vector-effect="non-scaling-stroke" d="
  M 284.20 152.55
  Q 285.18 154.02 286.54 154.65"
/>
<path stroke="#f3f7f2" stroke-opacity="0.565" vector-effect="non-scaling-stroke" d="
  M 291.26 157.35
  L 295.03 158.96"
/>
<path stroke="#838384" vector-effect="non-scaling-stroke" d="
  M 267.20 199.03
  Q 267.04 198.86 266.82 198.76"
/>
<path stroke="#151a17" stroke-opacity="0.565" vector-effect="non-scaling-stroke" d="
  M 307.99 142.18
  Q 308.37 142.43 308.19 142.71
  Q 307.96 143.07 307.49 143.20"
/>
<path stroke="#838384" vector-effect="non-scaling-stroke" d="
  M 343.25 142.37
  L 342.84 142.72"
/>
<path stroke="#838384" vector-effect="non-scaling-stroke" d="
  M 274.77 163.10
  Q 274.80 163.20 274.84 163.31"
/>
<path stroke="#f3f7f2" stroke-opacity="0.565" vector-effect="non-scaling-stroke" d="
  M 214.14 172.27
  L 211.29 175.95"
/>
<path stroke="#f3f7f2" stroke-opacity="0.565" vector-effect="non-scaling-stroke" d="
  M 346.86 170.08
  L 343.71 172.68"
/>
<path stroke="#f3f7f2" stroke-opacity="0.565" vector-effect="non-scaling-stroke" d="
  M 341.33 189.24
  Q 342.57 193.61 346.48 196.51"
/>
<path stroke="#838384" vector-effect="non-scaling-stroke" d="
  M 458.22 138.33
  Q 458.20 138.34 457.94 139.21
  A 1.39 1.39 0.0 0 1 455.27 139.14
  Q 454.20 134.89 455.71 130.34
  A 0.26 0.26 0.0 0 0 455.30 130.06
  C 451.76 133.11 451.02 137.05 454.68 140.29
  C 456.00 141.45 458.12 140.84 459.39 141.03
  C 462.13 141.45 463.84 139.27 464.11 136.60
  Q 464.78 130.04 458.69 129.41
  A 0.37 0.37 0.0 0 0 458.39 130.04
  C 459.45 131.10 461.49 131.05 461.88 132.89
  Q 462.35 135.11 462.52 137.08
  A 0.27 0.26 26.6 0 1 462.03 137.24
  Q 462.00 137.18 461.86 136.62
  A 0.41 0.41 0.0 0 0 461.05 136.74
  Q 461.10 137.87 461.64 138.19
  A 0.99 0.86 -36.3 0 1 461.27 139.82
  Q 458.64 140.71 458.99 138.85
  A 0.51 0.51 0.0 0 0 458.22 138.33"
/>
<path stroke="#838384" vector-effect="non-scaling-stroke" d="
  M 459.4756 133.1016
  A 1.06 0.70 -49.7 0 0 458.2561 133.4572
  A 1.06 0.70 -49.7 0 0 458.1044 134.7184
  A 1.06 0.70 -49.7 0 0 459.3239 134.3628
  A 1.06 0.70 -49.7 0 0 459.4756 133.1016"
/>
</g>
<path fill="#91b486" fill-opacity="0.125" d="
  M 105.19 0.00
  Q 106.20 2.56 105.94 5.79
  A 1.40 1.40 0.0 0 1 103.15 5.86
  Q 102.67 2.22 103.80 0.00
  L 105.19 0.00
  Z"
/>
<path fill="#060709" d="
  M 500.54 29.73
  Q 500.48 29.76 500.43 29.78
  A 0.03 0.03 0.0 0 1 500.40 29.74
  Q 500.44 29.65 500.51 29.62
  A 0.06 0.05 -66.7 0 1 500.54 29.73
  Z"
/>
<rect fill="#91b486" fill-opacity="0.125" x="-3.41" y="-1.38" transform="translate(102.53,31.51) rotate(0.3)" width="6.82" height="2.76" rx="0.73"/>
<rect fill="#91b486" fill-opacity="0.125" x="-1.38" y="-1.38" transform="translate(119.48,31.51) rotate(-0.8)" width="2.76" height="2.76" rx="0.78"/>
<rect fill="#91b486" fill-opacity="0.125" x="-1.26" y="-1.27" transform="translate(182.48,31.48) rotate(0.2)" width="2.52" height="2.54" rx="0.64"/>
<rect fill="#91b486" fill-opacity="0.125" x="-1.86" y="-1.36" transform="translate(246.01,31.51) rotate(-0.2)" width="3.72" height="2.72" rx="0.81"/>
<rect fill="#91b486" fill-opacity="0.125" x="-1.87" y="-1.35" transform="translate(272.04,31.50) rotate(-0.1)" width="3.74" height="2.70" rx="0.81"/>
<rect fill="#91b486" fill-opacity="0.125" x="-3.94" y="-1.36" transform="translate(280.98,31.51) rotate(0.1)" width="7.88" height="2.72" rx="0.61"/>
<rect fill="#91b486" fill-opacity="0.125" x="-1.87" y="-1.37" transform="translate(294.02,31.50) rotate(-0.1)" width="3.74" height="2.74" rx="0.77"/>
<rect fill="#91b486" fill-opacity="0.125" x="-1.89" y="-1.38" transform="translate(316.03,31.50) rotate(0.8)" width="3.78" height="2.76" rx="0.84"/>
<rect fill="#91b486" fill-opacity="0.125" x="-1.89" y="-1.40" transform="translate(324.03,31.51) rotate(0.4)" width="3.78" height="2.80" rx="0.85"/>
<rect fill="#91b486" fill-opacity="0.125" x="-1.84" y="-1.34" transform="translate(398.02,31.50) rotate(-0.1)" width="3.68" height="2.68" rx="0.75"/>
<rect fill="#91b486" fill-opacity="0.125" x="411.12" y="30.19" width="10.82" height="2.68" rx="0.60"/>
<rect fill="#91b486" fill-opacity="0.125" x="-3.41" y="-1.37" transform="translate(459.51,31.48) rotate(0.8)" width="6.82" height="2.74" rx="0.72"/>
<rect fill="#91b486" fill-opacity="0.125" x="470.12" y="30.17" width="11.78" height="2.68" rx="0.63"/>
<rect fill="#91b486" fill-opacity="0.125" x="-1.78" y="-1.27" transform="translate(174.98,31.51) rotate(1.3)" width="3.56" height="2.54" rx="0.63"/>
<rect fill="#91b486" fill-opacity="0.125" x="-1.82" y="-1.28" transform="translate(238.04,31.50) rotate(0.4)" width="3.64" height="2.56" rx="0.66"/>
<rect fill="#91b486" fill-opacity="0.125" x="-1.87" y="-1.33" transform="translate(346.01,31.51) rotate(-0.1)" width="3.74" height="2.66" rx="0.76"/>
<rect fill="#91b486" fill-opacity="0.125" x="-3.91" y="-1.33" transform="translate(359.02,31.53) rotate(0.3)" width="7.82" height="2.66" rx="0.58"/>
<rect fill="#91b486" fill-opacity="0.125" x="-11.37" y="-1.30" transform="translate(377.51,31.52) rotate(-0.1)" width="22.74" height="2.60" rx="0.52"/>
<rect fill="#91b486" fill-opacity="0.125" x="-7.35" y="-1.28" transform="translate(444.45,31.55) rotate(0.2)" width="14.70" height="2.56" rx="0.40"/>
<rect fill="#91b486" fill-opacity="0.125" x="-3.39" y="-1.28" transform="translate(492.52,31.51) rotate(0.7)" width="6.78" height="2.56" rx="0.55"/>
<path fill="#ffffff" d="
  M 441.66 207.01
  L 430.35 207.01
  A 0.35 0.35 0.0 0 1 430.00 206.66
  L 430.00 99.73
  A 0.35 0.35 0.0 0 1 430.18 99.43
  L 441.49 92.90
  A 0.35 0.35 0.0 0 1 442.01 93.21
  L 442.01 206.66
  A 0.35 0.35 0.0 0 1 441.66 207.01
  Z"
/>
<path fill="#ffffff" d="
  M 415.39 207.01
  L 403.60 207.01
  A 0.61 0.61 0.0 0 1 402.99 206.40
  L 402.99 100.03
  A 0.61 0.61 0.0 0 1 403.30 99.50
  L 415.09 92.70
  A 0.61 0.61 0.0 0 1 416.00 93.23
  L 416.00 206.40
  A 0.61 0.61 0.0 0 1 415.39 207.01
  Z"
/>
<path fill="#ffffff" d="
  M 408.69 93.88
  Q 408.26 94.30 408.13 94.36
  A 0.35 0.35 0.0 0 1 407.70 93.84
  Q 407.82 93.68 408.39 93.44
  A 0.27 0.27 0.0 0 1 408.69 93.88
  Z"
/>
<path fill="#ffffff" d="
  M 417.97 94.79
  Q 417.89 94.79 417.81 94.79
  Q 417.50 94.20 417.59 93.72
  A 0.22 0.22 0.0 0 1 418.02 93.73
  Q 418.09 94.25 417.97 94.79
  Z"
/>
<path fill="#060709" d="
  M 417.97 94.79
  Q 418.04 95.13 418.01 95.40
  A 0.18 0.18 0.0 0 1 417.66 95.38
  Q 417.66 95.12 417.81 94.79
  Q 417.89 94.79 417.97 94.79
  Z"
/>
<path fill="#ffffff" d="
  M 404.23 97.52
  A 0.21 0.21 0.0 0 1 404.19 97.11
  Q 404.41 97.06 404.44 97.06
  A 0.13 0.12 -74.6 0 1 404.55 97.26
  Q 404.38 97.52 404.23 97.52
  Z"
/>
<path fill="#ffffff" d="
  M 431.15 97.44
  Q 430.89 97.94 430.31 98.11
  A 0.40 0.32 -69.9 0 1 430.09 97.44
  Q 430.15 97.39 430.90 97.15
  A 0.21 0.21 0.0 0 1 431.15 97.44
  Z"
/>
<path fill="#ffffff" d="
  M 148.02 153.02
  L 147.56 154.46
  Q 142.97 172.41 150.20 187.30
  Q 154.20 195.57 164.36 197.62
  Q 167.58 198.27 171.07 197.40
  Q 176.22 196.11 177.51 195.20
  Q 182.37 191.77 184.46 190.20
  A 1.12 1.12 0.0 0 1 185.93 190.30
  L 191.69 196.05
  A 1.34 1.34 0.0 0 1 191.73 197.89
  Q 186.81 203.31 181.54 205.70
  Q 178.09 207.27 171.61 208.51
  Q 166.61 209.46 161.41 208.40
  Q 152.33 206.55 145.40 200.64
  Q 143.69 199.18 143.11 198.21
  A 1.12 0.01 58.7 0 0 142.60 197.38
  Q 138.39 192.03 137.02 188.44
  Q 130.74 171.96 134.54 155.23
  Q 137.03 144.27 142.60 137.79
  C 152.31 126.49 167.87 123.46 181.59 128.93
  Q 185.37 130.43 187.81 132.06
  Q 191.17 134.30 193.95 135.01
  A 0.20 0.20 0.0 0 1 194.05 135.34
  L 186.35 144.22
  A 1.76 1.76 0.0 0 1 183.74 144.28
  Q 179.86 140.22 174.08 138.43
  C 172.30 137.88 170.46 137.95 168.50 137.29
  A 4.20 4.10 -38.0 0 0 166.77 137.10
  Q 152.28 138.58 148.02 153.02
  Z"
/>
<path fill="#ffffff" d="
  M 203.79 166.27
  Q 204.23 166.06 204.49 165.73
  C 205.13 165.20 205.43 164.45 206.09 164.02
  C 211.15 160.79 216.99 158.21 222.99 157.91
  C 231.50 157.48 239.17 157.86 246.54 161.76
  A 0.25 0.25 0.0 0 0 246.90 161.57
  Q 247.48 155.40 246.54 148.97
  C 245.13 139.30 236.85 136.34 228.06 137.11
  Q 222.35 137.61 215.52 140.01
  Q 212.36 141.12 210.67 142.82
  A 1.33 1.33 0.0 0 1 208.50 142.39
  L 204.40 132.37
  A 0.48 0.47 83.4 0 0 204.03 132.07
  Q 203.99 132.07 203.75 132.12
  A 0.09 0.09 0.0 0 1 203.64 132.03
  L 203.64 131.26
  A 0.38 0.37 -62.8 0 1 204.32 131.04
  Q 204.73 131.62 205.26 131.79
  Q 205.68 131.93 206.23 131.72
  C 218.62 126.94 230.46 124.64 242.82 127.75
  Q 246.35 128.64 251.06 131.63
  C 255.58 134.49 258.90 142.24 258.95 147.23
  C 259.15 165.98 258.99 185.30 259.00 206.40
  A 0.62 0.62 0.0 0 1 258.38 207.02
  L 247.29 207.02
  A 0.40 0.39 -90.0 0 1 246.90 206.62
  L 246.90 199.47
  A 0.28 0.28 0.0 0 0 246.43 199.27
  Q 236.62 208.12 223.51 209.06
  Q 220.87 209.25 211.56 206.97
  A 0.76 0.75 67.4 0 1 211.30 206.86
  L 205.22 202.81
  A 2.59 2.57 -5.5 0 1 204.73 202.41
  Q 199.38 196.78 198.34 189.56
  Q 197.35 182.70 198.24 177.42
  Q 199.29 171.18 203.79 166.27
  Z
  M 214.14 172.27
  L 211.29 175.95
  Q 208.37 183.30 211.44 190.42
  Q 214.14 196.69 220.50 197.75
  Q 235.60 200.25 246.10 188.34
  A 3.67 3.64 -24.5 0 0 247.02 185.92
  L 247.02 173.11
  A 1.76 1.73 -72.1 0 0 246.31 171.70
  Q 244.98 170.73 243.11 170.13
  Q 232.98 166.93 222.09 168.41
  Q 217.33 169.06 214.14 172.27
  Z"
/>
<path fill="#ffffff" d="
  M 312.12 143.78
  Q 310.94 142.24 309.26 141.66
  L 304.33 139.22
  Q 302.24 137.78 301.04 138.10
  C 295.80 136.95 292.40 136.32 287.66 138.32
  Q 286.30 138.67 284.95 139.75
  Q 281.66 142.01 281.17 146.52
  A 2.31 2.29 -56.8 0 0 281.46 147.94
  Q 281.97 148.85 282.15 150.02
  A 1.89 1.87 -72.7 0 0 282.69 151.06
  L 284.20 152.55
  Q 285.18 154.02 286.54 154.65
  L 291.26 157.35
  L 295.03 158.96
  Q 302.40 162.57 309.75 166.27
  Q 312.90 167.85 317.76 173.24
  Q 321.27 177.15 321.82 184.16
  Q 322.77 196.32 312.97 203.25
  Q 311.58 204.23 310.11 205.44
  A 2.68 2.61 14.8 0 1 309.28 205.91
  Q 299.66 209.27 292.75 208.93
  Q 278.88 208.26 267.20 199.03
  Q 267.04 198.86 266.82 198.76
  L 266.82 197.98
  A 0.95 0.92 62.4 0 1 266.97 197.47
  L 268.97 194.42
  A 2.58 2.54 89.6 0 1 269.64 193.73
  Q 271.62 192.31 272.58 189.84
  A 0.76 0.75 27.0 0 1 273.70 189.48
  L 281.50 194.74
  A 0.15 0.15 0.0 0 0 281.57 194.78
  C 289.97 198.54 298.30 199.68 306.43 194.69
  A 3.52 3.48 -87.3 0 0 307.43 193.77
  Q 311.66 187.93 308.99 182.65
  Q 307.50 179.70 303.11 176.84
  C 298.75 173.99 292.60 171.93 288.94 170.07
  C 281.97 166.53 273.76 163.21 270.91 155.76
  Q 267.54 146.93 271.23 138.08
  Q 271.86 136.59 275.25 133.02
  C 279.45 128.59 288.15 126.38 293.51 126.30
  Q 302.98 126.16 311.81 129.85
  C 314.82 131.10 317.63 133.23 319.80 134.70
  A 0.50 0.50 0.0 0 1 319.93 135.41
  L 313.96 143.61
  A 0.81 0.81 0.0 0 1 313.42 143.94
  Q 312.83 144.02 312.12 143.78
  Z"
/>
<path fill="#ffffff" d="
  M 339.21 144.11
  L 338.53 143.68
  A 0.44 0.43 42.0 0 1 338.49 142.97
  Q 338.76 142.76 338.81 142.44
  Q 338.89 141.89 338.73 141.58
  Q 335.61 135.49 334.25 132.07
  Q 334.06 131.58 333.46 132.16
  A 0.12 0.12 0.0 0 1 333.26 132.08
  L 333.26 131.12
  A 0.52 0.52 0.0 0 1 333.92 130.62
  Q 334.71 130.85 335.07 131.25
  Q 335.96 132.19 337.00 131.72
  Q 348.47 126.51 361.51 126.30
  C 372.79 126.12 384.89 130.01 388.30 142.16
  Q 389.90 147.87 389.95 155.50
  Q 389.96 156.86 390.15 206.63
  A 0.36 0.36 0.0 0 1 389.79 206.99
  L 377.53 206.99
  A 0.55 0.55 0.0 0 1 376.98 206.44
  L 376.98 199.40
  A 0.32 0.32 0.0 0 0 376.42 199.18
  Q 369.08 206.95 357.72 208.61
  Q 347.81 210.07 338.98 205.02
  C 337.76 204.32 336.35 202.85 335.34 202.76
  A 1.02 1.00 -11.5 0 1 334.51 202.22
  Q 333.79 200.86 331.20 197.34
  C 329.68 195.29 328.88 191.44 328.34 188.39
  Q 326.53 178.15 331.75 169.46
  C 335.93 162.50 344.41 159.01 352.24 158.11
  Q 364.92 156.65 376.14 160.85
  A 0.71 0.71 0.0 0 0 377.10 160.21
  Q 377.10 160.00 376.96 149.76
  Q 376.90 146.12 373.25 141.09
  A 2.90 2.85 88.4 0 0 372.50 140.37
  Q 366.15 136.05 356.51 137.24
  Q 347.11 138.40 340.68 143.02
  A 0.83 0.81 -51.9 0 1 339.94 143.12
  Q 339.76 143.05 339.51 143.07
  A 0.41 0.41 0.0 0 0 339.13 143.53
  L 339.21 144.11
  Z
  M 346.86 170.08
  L 343.71 172.68
  C 339.70 177.07 339.37 183.90 341.33 189.24
  Q 342.57 193.61 346.48 196.51
  Q 359.35 201.05 370.81 193.51
  A 0.85 0.54 -5.8 0 0 370.95 193.40
  L 376.01 188.47
  A 6.61 6.24 -10.4 0 0 376.62 187.79
  Q 376.92 187.23 377.02 184.50
  Q 377.35 174.91 376.66 172.31
  A 1.18 1.17 11.7 0 0 376.23 171.66
  Q 375.06 170.78 373.29 170.19
  Q 359.43 165.56 346.86 170.08
  Z"
/>
<path fill="#ffffff" d="
  M 155.18 127.09
  L 151.95 128.42
  A 0.34 0.34 0.0 0 1 151.52 127.93
  Q 151.61 127.78 151.68 127.65
  A 0.28 0.28 0.0 0 1 152.03 127.55
  Q 152.43 127.74 152.86 127.13
  A 0.95 0.95 0.0 0 1 153.78 126.74
  L 155.17 126.95
  A 0.07 0.07 0.0 0 1 155.18 127.09
  Z"
/>
<ellipse fill="#060709" cx="0.00" cy="0.00" transform="translate(181.56,127.07) rotate(0.1)" rx="0.83" ry="0.28"/>
<ellipse fill="#060709" cx="0.00" cy="0.00" transform="translate(184.02,126.91) rotate(-53.4)" rx="0.24" ry="0.19"/>
<path fill="#91b486" fill-opacity="0.125" d="
  M 212.73 127.70
  L 211.17 128.30
  A 0.42 0.41 79.8 0 1 210.61 127.91
  L 210.61 127.24
  A 0.53 0.52 -90.0 0 1 211.13 126.71
  L 213.78 126.71
  A 0.52 0.52 0.0 0 1 213.96 127.72
  Q 213.24 127.97 212.98 127.75
  A 0.27 0.23 52.6 0 0 212.73 127.70
  Z"
/>
<path fill="#ffffff" d="
  M 454.17 127.19
  Q 453.43 127.56 453.17 127.69
  A 0.60 0.24 -19.7 0 1 452.35 127.66
  Q 452.42 127.48 452.42 127.28
  A 0.35 0.35 0.0 0 1 452.64 126.94
  Q 453.32 126.65 454.08 126.72
  A 0.25 0.25 0.0 0 1 454.17 127.19
  Z"
/>
<ellipse fill="#060709" cx="0.00" cy="0.00" transform="translate(246.15,127.18) rotate(-170.7)" rx="0.89" ry="0.26"/>
<path fill="#060709" d="
  M 342.38 127.41
  A 0.21 0.21 0.0 0 1 342.32 127.00
  Q 342.74 126.84 342.79 126.84
  A 0.28 0.28 0.0 0 1 342.93 127.37
  Q 342.84 127.42 342.38 127.41
  Z"
/>
<path fill="#060709" d="
  M 375.99 126.99
  Q 376.18 127.01 376.29 127.10
  A 0.03 0.02 -38.0 0 1 376.28 127.14
  Q 376.02 127.24 375.83 127.22
  A 0.17 0.10 -24.4 0 1 375.99 126.99
  Z"
/>
<path fill="#ffffff" d="
  M 466.93 135.47
  A 8.47 8.47 0.0 0 1 458.46 143.94
  A 8.47 8.47 0.0 0 1 449.99 135.47
  A 8.47 8.47 0.0 0 1 458.46 127.00
  A 8.47 8.47 0.0 0 1 466.93 135.47
  Z
  M 458.22 138.33
  Q 458.20 138.34 457.94 139.21
  A 1.39 1.39 0.0 0 1 455.27 139.14
  Q 454.20 134.89 455.71 130.34
  A 0.26 0.26 0.0 0 0 455.30 130.06
  C 451.76 133.11 451.02 137.05 454.68 140.29
  C 456.00 141.45 458.12 140.84 459.39 141.03
  C 462.13 141.45 463.84 139.27 464.11 136.60
  Q 464.78 130.04 458.69 129.41
  A 0.37 0.37 0.0 0 0 458.39 130.04
  C 459.45 131.10 461.49 131.05 461.88 132.89
  Q 462.35 135.11 462.52 137.08
  A 0.27 0.26 26.6 0 1 462.03 137.24
  Q 462.00 137.18 461.86 136.62
  A 0.41 0.41 0.0 0 0 461.05 136.74
  Q 461.10 137.87 461.64 138.19
  A 0.99 0.86 -36.3 0 1 461.27 139.82
  Q 458.64 140.71 458.99 138.85
  A 0.51 0.51 0.0 0 0 458.22 138.33
  Z
  M 459.4756 133.1016
  A 1.06 0.70 -49.7 0 0 458.2561 133.4572
  A 1.06 0.70 -49.7 0 0 458.1044 134.7184
  A 1.06 0.70 -49.7 0 0 459.3239 134.3628
  A 1.06 0.70 -49.7 0 0 459.4756 133.1016
  Z"
/>
<path fill="#060709" d="
  M 183.82 127.73
  A 0.24 0.24 0.0 0 1 184.24 127.95
  L 184.09 128.31
  A 0.23 0.23 0.0 0 1 183.65 128.19
  Q 183.69 127.90 183.82 127.73
  Z"
/>
<path fill="#060709" d="
  M 458.22 138.33
  A 0.51 0.51 0.0 0 1 458.99 138.85
  Q 458.64 140.71 461.27 139.82
  A 0.99 0.86 -36.3 0 0 461.64 138.19
  Q 461.10 137.87 461.05 136.74
  A 0.41 0.41 0.0 0 1 461.86 136.62
  Q 462.00 137.18 462.03 137.24
  A 0.27 0.26 26.6 0 0 462.52 137.08
  Q 462.35 135.11 461.88 132.89
  C 461.49 131.05 459.45 131.10 458.39 130.04
  A 0.37 0.37 0.0 0 1 458.69 129.41
  Q 464.78 130.04 464.11 136.60
  C 463.84 139.27 462.13 141.45 459.39 141.03
  C 458.12 140.84 456.00 141.45 454.68 140.29
  C 451.02 137.05 451.76 133.11 455.30 130.06
  A 0.26 0.26 0.0 0 1 455.71 130.34
  Q 454.20 134.89 455.27 139.14
  A 1.39 1.39 0.0 0 0 457.94 139.21
  Q 458.20 138.34 458.22 138.33
  Z"
/>
<path fill="#ffffff" d="
  M 254.06 131.57
  Q 254.15 131.33 251.41 131.27
  A 0.25 0.25 0.0 0 1 251.34 130.78
  Q 252.51 130.41 254.12 130.72
  A 0.35 0.35 0.0 0 1 254.39 131.17
  Q 254.24 131.68 254.22 131.69
  A 0.11 0.10 81.3 0 1 254.06 131.57
  Z"
/>
<path fill="#ffffff" d="
  M 274.91 132.07
  Q 274.98 132.37 274.97 132.40
  A 0.32 0.32 0.0 0 1 274.39 132.35
  L 273.94 131.00
  A 0.45 0.45 0.0 0 1 274.38 130.41
  Q 275.11 130.43 275.65 130.54
  A 0.30 0.30 0.0 0 1 275.74 131.10
  L 275.17 131.43
  A 0.58 0.57 67.4 0 0 274.91 132.07
  Z"
/>
<path fill="#060709" d="
  M 147.73 131.11
  Q 147.73 131.04 147.75 131.00
  A 0.15 0.10 -39.9 0 1 148.01 130.97
  Q 147.98 131.06 148.09 131.06
  A 0.08 0.05 -47.6 0 1 148.07 131.19
  Q 148.00 131.22 147.85 131.24
  A 0.13 0.10 86.3 0 1 147.73 131.11
  Z"
/>
<path fill="#060709" d="
  M 382.39 130.64
  Q 382.76 130.61 382.95 131.05
  A 0.30 0.29 11.1 0 1 382.47 131.37
  Q 382.33 131.24 382.23 131.14
  A 0.29 0.29 0.0 0 1 382.39 130.64
  Z"
/>
<path fill="#060709" d="
  M 448.71 131.32
  Q 448.71 131.24 448.74 130.96
  A 0.28 0.28 0.0 0 1 449.29 130.91
  Q 449.38 131.18 449.19 131.45
  A 0.27 0.26 -29.4 0 1 448.71 131.32
  Z"
/>
<path fill="#ffffff" d="
  M 384.33 131.99
  Q 384.38 132.04 384.66 133.04
  A 0.25 0.24 -76.7 0 1 384.26 133.29
  Q 383.65 132.74 383.64 132.29
  A 0.41 0.41 0.0 0 1 384.33 131.99
  Z"
/>
<path fill="#060709" d="
  M 254.05 133.05
  Q 254.04 133.03 254.02 132.96
  A 0.07 0.03 76.9 0 1 254.04 132.87
  Q 254.09 132.91 254.11 132.97
  A 0.06 0.04 -83.6 0 1 254.05 133.05
  Z"
/>
<ellipse fill="#060709" cx="0.00" cy="0.00" transform="translate(458.79,133.91) rotate(-49.7)" rx="1.06" ry="0.70"/>
<path fill="#ffffff" d="
  M 272.64 134.29
  Q 271.47 135.91 271.43 135.92
  A 0.60 0.60 0.0 0 1 270.69 135.04
  Q 271.37 134.00 272.33 133.81
  A 0.31 0.31 0.0 0 1 272.64 134.29
  Z"
/>
<path fill="#ffffff" d="
  M 387.80 135.29
  Q 387.58 134.83 387.66 134.38
  A 0.32 0.32 0.0 0 1 388.27 134.33
  Q 388.33 134.49 388.27 135.21
  A 0.25 0.25 0.0 0 1 387.80 135.29
  Z"
/>
<path fill="#ffffff" d="
  M 320.86 134.14
  Q 321.09 134.04 321.36 134.25
  A 0.25 0.25 0.0 0 1 321.44 134.53
  Q 321.16 135.32 321.47 136.60
  A 0.51 0.50 79.0 0 1 321.06 137.22
  Q 320.77 137.27 320.37 136.96
  A 0.45 0.44 46.7 0 1 320.39 136.25
  Q 321.48 135.47 320.76 134.52
  A 0.25 0.25 0.0 0 1 320.86 134.14
  Z"
/>
<path fill="#060709" d="
  M 257.00 134.62
  L 257.49 134.62
  A 0.38 0.37 20.3 0 1 257.78 135.24
  L 257.05 136.08
  A 0.12 0.11 71.0 0 1 256.85 135.98
  Q 256.95 135.46 256.73 135.17
  A 0.34 0.34 0.0 0 1 257.00 134.62
  Z"
/>
<path fill="#ffffff" d="
  M 387.80 137.53
  Q 387.75 137.10 387.66 136.68
  A 0.33 0.10 82.5 0 1 387.73 136.27
  Q 387.83 136.33 387.89 136.29
  A 0.14 0.14 0.0 0 1 388.11 136.42
  L 387.94 137.53
  A 0.07 0.07 0.0 0 1 387.80 137.53
  Z"
/>
<path fill="#91b486" fill-opacity="0.125" d="
  M 304.33 139.22
  Q 304.08 139.63 304.35 140.03
  A 0.36 0.36 0.0 0 1 304.05 140.59
  Q 301.91 140.58 299.83 141.30
  A 0.40 0.40 0.0 0 1 299.30 140.90
  Q 299.40 139.56 301.04 138.10
  Q 302.24 137.78 304.33 139.22
  Z"
/>
<path fill="#91b486" fill-opacity="0.125" d="
  M 287.66 138.32
  Q 288.35 139.81 287.54 141.20
  A 0.74 0.73 20.3 0 1 286.76 141.55
  Q 284.86 141.17 284.95 139.75
  Q 286.30 138.67 287.66 138.32
  Z"
/>
<path fill="#060709" d="
  M 500.68 138.85
  Q 500.67 139.05 500.52 139.10
  A 0.09 0.08 -86.3 0 1 500.42 138.98
  Q 500.42 138.97 500.61 138.82
  A 0.04 0.04 0.0 0 1 500.68 138.85
  Z"
/>
<path fill="#ffffff" d="
  M 173.28 139.98
  Q 173.36 139.73 173.72 139.65
  A 0.71 0.70 56.4 0 1 174.29 139.77
  L 174.82 140.14
  A 0.18 0.17 64.6 0 1 174.71 140.46
  Q 173.59 140.36 173.39 140.25
  A 0.23 0.22 23.2 0 1 173.28 139.98
  Z"
/>
<path fill="#ffffff" d="
  M 238.57 139.95
  Q 238.24 139.78 237.52 140.64
  A 0.33 0.33 0.0 0 1 236.99 140.59
  Q 236.75 140.19 236.77 140.03
  A 0.53 0.52 -83.9 0 1 237.34 139.56
  Q 238.69 139.70 238.74 139.77
  A 0.13 0.12 -2.9 0 1 238.57 139.95
  Z"
/>
<ellipse fill="#ffffff" cx="0.00" cy="0.00" transform="translate(367.74,139.94) rotate(-7.3)" rx="0.86" ry="0.29"/>
<path fill="#060709" d="
  M 350.68 140.21
  Q 351.72 139.68 352.38 139.74
  A 0.27 0.27 0.0 0 1 352.35 140.28
  L 350.70 140.28
  A 0.04 0.04 0.0 0 1 350.68 140.21
  Z"
/>
<path fill="#060709" d="
  M 354.29 140.05
  Q 354.25 139.99 354.23 139.94
  A 0.06 0.04 88.9 0 1 354.28 139.86
  Q 354.36 139.90 354.40 139.98
  A 0.07 0.06 -76.2 0 1 354.29 140.05
  Z"
/>
<ellipse fill="#ffffff" cx="0.00" cy="0.00" transform="translate(240.31,140.58) rotate(-143.9)" rx="0.97" ry="0.29"/>
<path fill="#060709" d="
  M 370.23 140.07
  A 0.17 0.16 38.6 0 1 370.27 140.39
  Q 370.22 140.41 369.97 140.29
  A 0.09 0.08 -54.2 0 1 369.95 140.15
  Q 370.04 140.06 370.23 140.07
  Z"
/>
<path fill="#060709" d="
  M 176.30 140.52
  Q 176.21 140.67 176.02 140.82
  A 0.18 0.18 0.0 0 1 175.76 140.58
  Q 175.84 140.45 176.03 140.28
  A 0.18 0.18 0.0 0 1 176.30 140.52
  Z"
/>
<path fill="#060709" d="
  M 450.45 141.30
  Q 450.23 141.31 449.94 141.23
  A 0.28 0.28 0.0 0 1 449.89 140.71
  Q 450.11 140.59 450.56 140.83
  A 0.25 0.25 0.0 0 1 450.45 141.30
  Z"
/>
<path fill="#060709" d="
  M 307.99 142.18
  Q 308.37 142.43 308.19 142.71
  Q 307.96 143.07 307.49 143.20
  L 307.15 142.37
  A 0.32 0.32 0.0 0 1 307.59 141.97
  L 307.99 142.18
  Z"
/>
<path fill="#91b486" fill-opacity="0.125" d="
  M 309.26 141.66
  Q 310.94 142.24 312.12 143.78
  Q 311.23 145.59 308.10 144.72
  A 0.86 0.86 0.0 0 1 307.48 144.05
  Q 307.40 143.67 307.49 143.20
  Q 307.96 143.07 308.19 142.71
  Q 308.37 142.43 307.99 142.18
  Q 308.68 142.07 309.26 141.66
  Z"
/>
<path fill="#ffffff" d="
  M 466.09 142.18
  Q 465.73 142.73 466.36 143.85
  A 0.32 0.31 88.7 0 1 465.95 144.29
  Q 465.78 144.20 465.45 142.63
  Q 465.44 142.54 465.52 142.24
  Q 465.62 141.90 465.93 141.89
  A 0.19 0.19 0.0 0 1 466.09 142.18
  Z"
/>
<path fill="#060709" d="
  M 343.25 142.37
  L 342.84 142.72
  Q 342.91 141.95 343.25 142.37
  Z"
/>
<path fill="#ffffff" d="
  M 343.25 142.37
  L 343.40 143.81
  A 0.54 0.54 0.0 0 1 342.91 144.41
  Q 341.01 144.58 339.21 144.11
  L 342.42 143.53
  A 0.54 0.53 -4.7 0 0 342.86 143.02
  Q 342.87 142.88 342.84 142.72
  L 343.25 142.37
  Z"
/>
<path fill="#ffffff" d="
  M 453.85 144.26
  Q 453.00 144.53 451.94 143.76
  Q 451.69 143.57 451.68 143.24
  Q 451.68 142.99 451.77 142.86
  A 0.25 0.24 45.7 0 1 452.17 142.87
  Q 452.72 143.69 453.82 143.86
  A 0.21 0.21 0.0 0 1 453.85 144.26
  Z"
/>
<path fill="#ffffff" d="
  M 210.03 144.35
  Q 208.94 144.84 207.77 144.11
  A 0.31 0.30 -74.0 0 1 207.63 143.85
  Q 207.64 143.55 208.02 143.32
  A 0.42 0.42 0.0 0 1 208.50 143.35
  Q 209.45 144.05 209.97 144.05
  A 0.16 0.16 0.0 0 1 210.03 144.35
  Z"
/>
<path fill="#060709" d="
  M 240.78 143.78
  Q 240.92 143.76 241.12 143.88
  A 0.13 0.12 -42.8 0 1 241.11 144.09
  Q 240.95 144.18 240.73 144.04
  A 0.14 0.14 0.0 0 1 240.78 143.78
  Z"
/>
<ellipse fill="#ffffff" cx="0.00" cy="0.00" transform="translate(463.93,143.92) rotate(-163.8)" rx="0.58" ry="0.32"/>
<path fill="#060709" d="
  M 314.83 144.60
  Q 314.51 144.65 314.29 144.49
  A 0.32 0.25 -8.3 0 1 314.68 144.08
  Q 314.82 144.13 314.94 144.25
  A 0.21 0.20 -28.3 0 1 314.83 144.60
  Z"
/>
<path fill="#91b486" fill-opacity="0.125" d="
  M 153.64 144.99
  A 0.38 0.38 0.0 0 1 154.25 145.38
  C 153.92 146.56 154.53 147.20 154.35 148.35
  Q 154.31 148.63 154.13 148.78
  Q 153.68 149.15 153.39 148.76
  Q 151.78 146.63 153.64 144.99
  Z"
/>
<path fill="#060709" d="
  M 374.97 148.28
  Q 375.12 148.49 375.14 148.71
  A 0.17 0.16 39.3 0 1 374.81 148.73
  Q 374.78 148.57 374.81 148.33
  A 0.09 0.09 0.0 0 1 374.97 148.28
  Z"
/>
<path fill="#ffffff" d="
  M 284.43 149.31
  Q 284.44 149.33 284.44 150.48
  A 0.43 0.42 9.6 0 1 283.87 150.88
  Q 283.17 150.62 283.15 149.92
  A 0.80 0.63 -63.7 0 1 284.43 149.31
  Z"
/>
<path fill="#91b486" fill-opacity="0.125" d="
  M 147.56 154.46
  L 148.02 153.02
  Q 149.71 152.85 150.17 151.19
  A 0.25 0.25 0.0 0 1 150.64 151.17
  Q 150.70 151.31 150.61 151.66
  A 0.55 0.54 -77.7 0 0 151.03 152.32
  Q 151.06 152.32 151.13 152.33
  A 0.19 0.19 0.0 0 1 151.28 152.61
  Q 150.75 153.54 150.77 154.37
  A 1.28 1.27 -71.1 0 1 148.70 155.39
  L 147.56 154.46
  Z"
/>
<path fill="#91b486" fill-opacity="0.125" d="
  M 286.54 154.65
  Q 285.18 154.02 284.20 152.55
  Q 286.39 151.88 288.30 152.83
  A 0.36 0.36 0.0 0 1 288.23 153.50
  Q 286.53 153.96 286.54 154.65
  Z"
/>
<circle fill="#91b486" fill-opacity="0.125" cx="215.22" cy="156.23" r="0.03"/>
<path fill="#91b486" fill-opacity="0.125" d="
  M 295.03 158.96
  L 291.26 157.35
  Q 292.79 156.30 294.96 156.54
  A 0.80 0.79 -63.3 0 1 295.41 157.91
  Q 295.13 158.17 295.03 158.96
  Z"
/>
<path fill="#060709" d="
  M 207.25 161.49
  A 0.41 0.41 0.0 0 1 206.75 160.86
  Q 207.29 160.18 207.83 160.13
  A 0.31 0.31 0.0 0 1 208.08 160.64
  Q 207.42 161.41 207.25 161.49
  Z"
/>
<path fill="#91b486" fill-opacity="0.125" d="
  M 336.49 161.81
  L 337.06 160.33
  A 0.35 0.34 -87.6 0 1 337.26 160.14
  Q 337.75 159.98 338.20 160.44
  A 0.58 0.58 0.0 0 1 338.30 161.11
  Q 338.08 161.53 336.93 162.19
  A 0.31 0.31 0.0 0 1 336.49 161.81
  Z"
/>
<path fill="#ffffff" d="
  M 274.77 163.10
  Q 274.80 163.20 274.84 163.31
  Q 273.48 162.89 273.36 162.29
  A 0.24 0.24 0.0 0 1 273.77 162.07
  L 274.77 163.10
  Z"
/>
<path fill="#060709" d="
  M 274.84 163.31
  Q 274.80 163.20 274.77 163.10
  Q 274.91 163.15 275.01 163.24
  A 0.12 0.12 0.0 0 1 274.98 163.44
  Q 274.46 163.65 274.84 163.31
  Z"
/>
<path fill="#060709" d="
  M 308.17 163.76
  L 309.86 163.93
  A 0.32 0.32 0.0 0 1 310.15 164.25
  L 310.15 164.56
  A 0.22 0.21 8.3 0 1 309.87 164.76
  L 308.21 164.27
  A 0.30 0.29 80.3 0 1 308.05 164.15
  Q 307.95 163.98 308.02 163.84
  A 0.16 0.15 -72.3 0 1 308.17 163.76
  Z"
/>
<ellipse fill="#ffffff" cx="0.00" cy="0.00" transform="translate(333.45,164.95) rotate(-66.4)" rx="0.97" ry="0.55"/>
<ellipse fill="#ffffff" cx="0.00" cy="0.00" transform="translate(204.03,165.07) rotate(-36.0)" rx="0.75" ry="0.46"/>
<path fill="#91b486" fill-opacity="0.125" d="
  M 279.33 166.30
  L 277.72 167.22
  A 0.42 0.42 0.0 0 1 277.10 166.77
  Q 277.29 165.92 277.39 165.72
  A 0.56 0.55 27.9 0 1 278.15 165.49
  L 279.33 166.14
  A 0.09 0.09 0.0 0 1 279.33 166.30
  Z"
/>
<path fill="#060709" d="
  M 204.49 165.73
  Q 204.23 166.06 203.79 166.27
  Q 203.93 165.40 204.49 165.73
  Z"
/>
<path fill="#91b486" fill-opacity="0.125" d="
  M 314.38 167.74
  Q 316.11 167.84 316.57 167.38
  A 0.73 0.72 42.6 0 1 317.55 167.34
  Q 318.78 168.37 318.32 170.29
  A 0.75 0.60 -57.5 0 1 317.13 170.70
  Q 317.10 170.66 317.12 170.42
  A 0.53 0.53 0.0 0 0 316.91 169.94
  L 314.28 168.03
  A 0.16 0.16 0.0 0 1 314.38 167.74
  Z"
/>
<path fill="#060709" d="
  M 329.64 168.62
  Q 329.98 167.71 330.90 167.46
  A 0.31 0.30 -67.6 0 1 331.13 168.02
  L 329.83 168.77
  A 0.13 0.12 -5.1 0 1 329.64 168.62
  Z"
/>
<path fill="#91b486" fill-opacity="0.125" d="
  M 225.12 170.29
  Q 224.36 170.43 223.14 170.19
  A 0.34 0.33 7.9 0 1 222.87 169.84
  Q 222.90 169.52 223.26 169.27
  A 0.39 0.38 41.2 0 1 223.66 169.25
  L 225.16 170.05
  A 0.13 0.13 0.0 0 1 225.12 170.29
  Z"
/>
<path fill="#060709" d="
  M 355.79 169.91
  Q 355.55 170.24 353.47 170.18
  A 0.28 0.27 -77.1 0 1 353.23 169.79
  Q 353.27 169.70 353.50 169.55
  A 0.27 0.26 43.2 0 1 353.77 169.55
  Q 354.90 170.22 355.63 169.75
  A 0.12 0.11 0.4 0 1 355.79 169.91
  Z"
/>
<ellipse fill="#060709" cx="0.00" cy="0.00" transform="translate(228.94,169.99) rotate(-179.0)" rx="1.47" ry="0.22"/>
<ellipse fill="#060709" cx="0.00" cy="0.00" transform="translate(232.51,170.02) rotate(-10.1)" rx="0.60" ry="0.18"/>
<path fill="#060709" d="
  M 233.89 170.12
  A 0.17 0.17 0.0 0 1 233.86 169.80
  Q 234.14 169.64 234.28 169.66
  A 0.28 0.28 0.0 0 1 234.30 170.22
  Q 234.26 170.22 233.89 170.12
  Z"
/>
<ellipse fill="#060709" cx="0.00" cy="0.00" transform="translate(358.57,169.96) rotate(-179.1)" rx="1.41" ry="0.18"/>
<ellipse fill="#060709" cx="0.00" cy="0.00" transform="translate(363.18,169.91) rotate(-1.3)" rx="2.13" ry="0.18"/>
<path fill="#91b486" fill-opacity="0.125" d="
  M 219.12 170.87
  Q 219.01 170.78 218.98 170.74
  A 0.39 0.38 -32.0 0 1 219.12 170.16
  Q 219.42 170.03 219.74 170.04
  A 0.29 0.29 0.0 0 1 219.89 170.58
  Q 219.50 170.84 219.14 170.87
  A 0.01 0.01 0.0 0 1 219.12 170.87
  Z"
/>
<path fill="#91b486" fill-opacity="0.125" d="
  M 346.86 170.08
  Q 346.46 171.20 347.06 171.36
  Q 347.67 171.52 347.55 171.91
  Q 347.40 172.38 347.77 173.16
  Q 348.14 173.92 347.65 174.33
  Q 346.58 175.24 345.21 174.66
  A 0.27 0.27 0.0 0 1 345.06 174.31
  L 345.16 174.04
  A 0.02 0.01 -76.7 0 0 345.15 174.01
  L 344.51 174.01
  A 0.56 0.54 -7.4 0 1 343.97 173.61
  L 343.71 172.68
  L 346.86 170.08
  Z"
/>
<path fill="#91b486" fill-opacity="0.125" d="
  M 211.29 175.95
  L 214.14 172.27
  Q 214.77 174.08 217.15 171.24
  A 0.34 0.32 -66.8 0 1 217.42 171.12
  Q 217.69 171.15 217.77 171.36
  A 0.16 0.16 0.0 0 1 217.75 171.51
  Q 217.04 172.60 217.60 173.40
  A 0.77 0.73 -88.5 0 1 216.55 174.45
  Q 216.49 174.40 216.43 174.17
  A 0.79 0.79 0.0 0 0 214.92 174.06
  L 213.53 177.66
  A 0.50 0.50 0.0 0 1 212.75 177.87
  Q 212.14 177.39 211.29 175.95
  Z"
/>
<path fill="#91b486" fill-opacity="0.125" d="
  M 196.49 176.82
  Q 196.96 177.14 196.25 178.44
  A 0.80 0.79 -51.2 0 0 196.34 179.33
  L 197.01 180.13
  A 0.10 0.08 -65.3 0 1 197.03 180.21
  L 196.78 181.25
  A 0.31 0.31 0.0 0 1 196.23 181.37
  Q 195.15 179.96 195.71 178.62
  Q 196.17 177.52 196.08 177.09
  A 0.27 0.26 11.3 0 1 196.49 176.82
  Z"
/>
<ellipse fill="#060709" cx="0.00" cy="0.00" transform="translate(301.04,177.91) rotate(-181.2)" rx="0.51" ry="0.27"/>
<rect fill="#91b486" fill-opacity="0.125" x="-1.31" y="-1.80" transform="translate(494.48,180.01) rotate(1.3)" width="2.62" height="3.60" rx="0.64"/>
<rect fill="#91b486" fill-opacity="0.125" x="-1.26" y="-1.28" transform="translate(279.11,180.07) rotate(3.2)" width="2.52" height="2.56" rx="0.71"/>
<path fill="#060709" d="
  M 304.16 179.32
  A 0.14 0.14 0.0 0 1 303.88 179.32
  L 303.82 178.93
  A 0.07 0.07 0.0 0 1 303.94 178.88
  Q 304.18 179.18 304.16 179.32
  Z"
/>
<path fill="#060709" d="
  M 306.12 180.78
  Q 306.61 180.80 306.79 181.18
  A 0.61 0.31 9.3 0 1 305.96 181.44
  Q 305.52 181.28 305.89 180.88
  A 0.27 0.27 0.0 0 1 306.12 180.78
  Z"
/>
<path fill="#060709" d="
  M 304.27 181.35
  Q 304.07 181.50 303.81 181.30
  A 0.17 0.17 0.0 0 1 303.75 181.17
  Q 303.74 180.92 303.98 180.90
  A 0.31 0.25 18.5 0 1 304.27 181.35
  Z"
/>
<ellipse fill="#060709" cx="0.00" cy="0.00" transform="translate(149.99,182.24) rotate(-86.8)" rx="0.79" ry="0.18"/>
<path fill="#91b486" fill-opacity="0.125" d="
  M 196.89 182.24
  Q 196.89 182.27 196.76 182.56
  A 0.14 0.14 0.0 0 1 196.53 182.60
  Q 196.33 182.39 196.35 182.22
  A 0.28 0.27 45.8 0 1 196.89 182.24
  Z"
/>
<path fill="#060709" d="
  M 308.35 184.06
  Q 308.54 185.18 308.11 186.25
  A 0.16 0.16 0.0 0 1 307.80 186.16
  Q 307.95 185.16 307.79 184.15
  Q 307.62 183.15 307.16 182.25
  A 0.16 0.16 0.0 0 1 307.43 182.07
  Q 308.17 182.95 308.35 184.06
  Z"
/>
<path fill="#060709" d="
  M 132.98 182.84
  A 0.16 0.16 0.0 0 1 133.28 182.81
  Q 133.37 183.02 133.33 183.16
  A 0.17 0.17 0.0 0 1 133.00 183.16
  Q 132.94 182.97 132.98 182.84
  Z"
/>
<path fill="#91b486" fill-opacity="0.125" d="
  M 346.48 196.51
  Q 342.57 193.61 341.33 189.24
  Q 342.64 188.45 342.38 186.88
  A 0.95 0.93 63.0 0 1 342.64 186.06
  L 343.03 185.67
  A 0.30 0.29 -12.3 0 1 343.52 185.98
  L 343.23 186.71
  A 0.52 0.50 40.9 0 0 343.27 187.14
  C 344.25 188.76 343.27 190.76 343.85 191.72
  Q 344.85 193.40 347.21 193.19
  A 0.42 0.42 0.0 0 1 347.64 193.77
  L 346.48 196.51
  Z"
/>
<path fill="#ffffff" d="
  M 375.00 185.94
  Q 375.97 187.12 375.10 188.56
  A 0.28 0.28 0.0 0 1 374.58 188.42
  L 374.58 186.09
  A 0.24 0.24 0.0 0 1 375.00 185.94
  Z"
/>
<ellipse fill="#ffffff" cx="0.00" cy="0.00" transform="translate(244.71,187.40) rotate(-59.1)" rx="1.17" ry="0.45"/>
<ellipse fill="#91b486" fill-opacity="0.125" cx="0.00" cy="0.00" transform="translate(261.04,187.06) rotate(-102.9)" rx="0.66" ry="0.34"/>
<path fill="#91b486" fill-opacity="0.125" d="
  M 327.56 192.20
  Q 327.44 192.18 327.42 192.23
  A 0.07 0.02 -58.6 0 1 327.36 192.28
  Q 324.98 189.77 325.78 187.46
  A 0.23 0.23 0.0 0 1 326.08 187.32
  L 326.34 187.42
  A 0.18 0.17 -75.5 0 1 326.45 187.61
  Q 326.07 190.23 327.52 191.85
  A 0.25 0.11 58.7 0 1 327.56 192.20
  Z"
/>
<path fill="#ffffff" d="
  M 371.78 190.38
  Q 371.48 190.65 371.02 191.95
  A 0.23 0.23 0.0 0 1 370.58 191.88
  Q 370.51 190.24 371.60 190.01
  A 0.21 0.21 0.0 0 1 371.78 190.38
  Z"
/>
<ellipse fill="#ffffff" cx="0.00" cy="0.00" transform="translate(241.10,190.93) rotate(-78.7)" rx="0.71" ry="0.50"/>
<path fill="#060709" d="
  M 195.93 191.40
  Q 195.77 191.13 195.79 190.90
  A 0.30 0.30 0.0 0 1 196.39 190.91
  Q 196.40 191.40 196.39 191.41
  A 0.28 0.28 0.0 0 1 195.93 191.40
  Z"
/>
<path fill="#060709" d="
  M 136.99 190.84
  Q 137.82 192.79 137.04 192.79
  A 0.28 0.28 0.0 0 1 136.76 192.51
  L 136.76 190.89
  A 0.12 0.12 0.0 0 1 136.99 190.84
  Z"
/>
<path fill="#91b486" fill-opacity="0.125" d="
  M 213.50 191.06
  Q 213.67 191.33 213.81 191.89
  A 0.27 0.27 0.0 0 1 213.36 192.15
  Q 213.03 191.85 212.94 191.27
  A 0.31 0.30 24.2 0 1 213.50 191.06
  Z"
/>
<path fill="#060709" d="
  M 280.56 192.60
  A 0.30 0.26 70.7 0 1 280.12 192.35
  Q 280.10 191.99 280.36 191.86
  C 280.89 191.60 280.77 192.43 280.56 192.60
  Z"
/>
<path fill="#91b486" fill-opacity="0.125" d="
  M 215.88 193.39
  L 217.41 193.39
  A 0.41 0.41 0.0 0 1 217.79 193.94
  L 217.39 194.98
  A 0.41 0.40 -58.9 0 1 216.75 195.14
  L 215.60 194.14
  A 0.43 0.43 0.0 0 1 215.88 193.39
  Z"
/>
<path fill="#91b486" fill-opacity="0.125" d="
  M 305.27 193.41
  A 0.29 0.22 87.4 0 1 305.58 193.79
  Q 305.54 193.93 305.28 194.06
  A 0.18 0.18 0.0 0 1 305.04 193.82
  Q 305.24 193.43 305.27 193.41
  Z"
/>
<path fill="#ffffff" d="
  M 266.48 195.35
  L 266.48 193.90
  A 0.41 0.41 0.0 0 1 266.91 193.49
  Q 267.71 193.54 267.93 193.66
  A 0.53 0.53 0.0 0 1 268.10 194.51
  L 267.05 195.58
  A 0.33 0.33 0.0 0 1 266.48 195.35
  Z"
/>
<path fill="#060709" d="
  M 160.45 194.13
  Q 160.19 194.23 159.86 194.15
  A 0.26 0.26 0.0 0 1 159.86 193.65
  Q 160.21 193.57 160.43 193.64
  A 0.26 0.26 0.0 0 1 160.45 194.13
  Z"
/>
<path fill="#060709" d="
  M 284.89 193.85
  A 0.20 0.20 0.0 0 1 284.97 194.24
  Q 284.86 194.28 284.36 194.13
  A 0.15 0.15 0.0 0 1 284.41 193.84
  L 284.89 193.85
  Z"
/>
<path fill="#060709" d="
  M 237.53 194.57
  Q 237.46 194.58 237.31 194.56
  Q 236.05 194.40 236.87 194.12
  Q 237.03 194.07 237.07 194.07
  A 0.43 0.22 20.0 0 1 237.53 194.57
  Z"
/>
<ellipse fill="#ffffff" cx="0.00" cy="0.00" transform="translate(140.91,197.58) rotate(-115.3)" rx="1.18" ry="0.26"/>
<ellipse fill="#060709" cx="0.00" cy="0.00" transform="translate(329.94,197.77) rotate(-101.1)" rx="0.79" ry="0.20"/>
<path fill="#060709" d="
  M 199.99 198.81
  Q 200.21 199.84 200.01 200.25
  A 0.30 0.30 0.0 0 1 199.46 200.01
  L 199.93 198.80
  A 0.03 0.03 0.0 0 1 199.99 198.81
  Z"
/>
<path fill="#060709" d="
  M 267.20 199.03
  L 267.19 200.41
  A 0.06 0.05 0.0 0 1 267.13 200.46
  L 266.81 200.46
  A 0.25 0.25 0.0 0 1 266.56 200.24
  Q 266.47 199.44 266.82 198.76
  Q 267.04 198.86 267.20 199.03
  Z"
/>
<path fill="#ffffff" d="
  M 141.45 199.97
  A 0.25 0.25 0.0 0 1 141.26 200.36
  Q 140.78 200.40 140.55 200.27
  Q 140.26 200.11 140.33 199.72
  Q 140.37 199.47 140.41 199.41
  A 0.43 0.43 0.0 0 1 141.10 199.45
  L 141.45 199.97
  Z"
/>
<path fill="#91b486" fill-opacity="0.125" d="
  M 321.25 199.92
  Q 321.32 199.97 321.39 200.24
  A 0.05 0.05 0.0 0 1 321.35 200.31
  L 319.61 200.61
  A 0.37 0.37 0.0 0 1 319.20 200.10
  Q 319.72 198.91 320.81 198.83
  Q 320.94 198.82 321.24 199.06
  Q 321.49 199.26 321.23 199.50
  A 0.28 0.27 42.5 0 0 321.25 199.92
  Z"
/>
<path fill="#060709" d="
  M 330.12 199.39
  Q 330.22 199.55 330.15 199.74
  A 0.47 0.26 -61.4 0 1 329.58 200.10
  Q 329.46 199.90 329.72 199.40
  A 0.23 0.23 0.0 0 1 330.12 199.39
  Z"
/>
<path fill="#060709" d="
  M 331.39 199.93
  Q 331.55 199.93 331.86 200.18
  A 0.23 0.18 76.1 0 1 331.69 200.56
  Q 331.28 200.24 331.24 200.14
  A 0.16 0.16 0.0 0 1 331.39 199.93
  Z"
/>
<path fill="#ffffff" d="
  M 314.36 203.80
  L 317.52 200.64
  A 0.17 0.17 0.0 0 1 317.76 200.64
  L 317.96 200.83
  A 0.20 0.20 0.0 0 1 317.98 201.08
  L 316.94 202.51
  A 0.59 0.58 -52.3 0 0 317.04 203.31
  Q 317.25 203.48 317.34 203.68
  A 0.33 0.32 -12.2 0 1 317.04 204.14
  L 314.50 204.14
  A 0.20 0.20 0.0 0 1 314.36 203.80
  Z"
/>
<path fill="#ffffff" d="
  M 143.90 201.97
  L 143.69 201.10
  A 0.21 0.21 0.0 0 1 144.06 200.92
  Q 144.57 201.62 144.43 202.00
  A 0.28 0.28 0.0 0 1 143.90 201.97
  Z"
/>
<path fill="#ffffff" d="
  M 203.40 202.30
  Q 204.48 202.57 204.37 203.61
  A 0.36 0.36 0.0 0 1 203.66 203.61
  Q 203.63 203.40 203.10 202.79
  A 0.30 0.30 0.0 0 1 203.40 202.30
  Z"
/>
<path fill="#ffffff" d="
  M 334.73 203.94
  Q 333.91 204.30 333.21 203.89
  A 0.42 0.42 0.0 0 1 333.02 203.36
  L 333.25 202.76
  A 0.27 0.27 0.0 0 1 333.75 202.76
  Q 334.14 203.73 334.68 203.70
  A 0.13 0.12 -57.3 0 1 334.73 203.94
  Z"
/>
<path fill="#060709" d="
  M 144.33 202.97
  Q 144.52 203.44 144.45 203.64
  A 0.35 0.27 -49.4 0 1 143.87 203.76
  Q 143.78 203.48 143.87 203.01
  A 0.24 0.24 0.0 0 1 144.33 202.97
  Z"
/>
<path fill="#ffffff" d="
  M 146.01 203.38
  Q 145.91 203.14 145.90 203.10
  A 0.33 0.33 0.0 0 1 146.36 202.77
  L 147.04 203.08
  A 0.26 0.26 0.0 0 1 147.13 203.48
  Q 147.05 203.57 146.68 203.69
  A 0.56 0.55 69.4 0 1 146.01 203.38
  Z"
/>
<ellipse fill="#060709" cx="0.00" cy="0.00" transform="translate(373.94,203.13) rotate(-0.1)" rx="0.21" ry="0.01"/>
<path fill="#ffffff" d="
  M 243.70 204.16
  Q 243.13 204.26 242.65 204.11
  A 0.42 0.35 -43.5 0 1 242.74 203.39
  Q 243.14 203.22 243.59 203.35
  A 0.46 0.38 42.7 0 1 243.70 204.16
  Z"
/>
<ellipse fill="#060709" cx="0.00" cy="0.00" transform="translate(186.92,203.93) rotate(-49.7)" rx="0.46" ry="0.14"/>
<path fill="#060709" d="
  M 392.21 205.10
  Q 392.49 205.97 392.03 207.00
  A 0.21 0.04 -64.1 0 1 391.89 207.19
  Q 391.85 207.14 391.82 207.11
  A 0.22 0.02 84.3 0 1 391.78 206.91
  Q 391.68 205.90 391.74 205.16
  A 0.24 0.24 0.0 0 1 392.21 205.10
  Z"
/>
<path fill="#060709" d="
  M 400.75 205.32
  Q 400.73 205.25 400.77 204.67
  A 0.23 0.22 -58.0 0 1 401.19 204.57
  Q 401.41 204.97 401.31 205.31
  A 0.29 0.29 0.0 0 1 400.75 205.32
  Z"
/>
<path fill="#ffffff" d="
  M 336.78 206.07
  Q 336.68 205.88 336.68 205.75
  A 0.32 0.32 0.0 0 1 337.28 205.58
  Q 337.38 205.79 337.19 206.08
  A 0.24 0.24 0.0 0 1 336.78 206.07
  Z"
/>
<ellipse fill="#ffffff" cx="0.00" cy="0.00" transform="translate(443.72,206.02) rotate(-75.7)" rx="0.56" ry="0.22"/>
<path fill="#ffffff" d="
  M 239.61 207.20
  L 237.26 207.20
  A 0.12 0.12 0.0 0 1 237.20 206.97
  L 239.38 205.72
  A 0.23 0.23 0.0 0 1 239.67 206.07
  L 239.28 206.51
  A 0.40 0.40 0.0 0 0 239.26 207.01
  Q 239.29 207.05 239.62 207.12
  A 0.04 0.04 0.0 0 1 239.61 207.20
  Z"
/>
<path fill="#ffffff" d="
  M 183.41 207.34
  L 181.89 207.34
  A 0.30 0.30 0.0 0 1 181.67 206.83
  Q 182.33 206.15 183.50 206.37
  A 0.49 0.49 0.0 0 1 183.41 207.34
  Z"
/>
<path fill="#060709" d="
  M 401.20 206.55
  Q 401.25 206.69 401.31 206.93
  A 0.26 0.26 0.0 0 1 400.82 207.08
  Q 400.67 206.71 400.75 206.55
  A 0.25 0.24 -44.7 0 1 401.20 206.55
  Z"
/>
<ellipse fill="#ffffff" cx="0.00" cy="0.00" transform="translate(152.90,206.96) rotate(-175.4)" rx="1.48" ry="0.36"/>
<path fill="#ffffff" d="
  M 209.85 207.30
  Q 209.11 207.39 208.25 207.44
  Q 207.76 207.47 207.40 207.05
  A 0.36 0.35 -20.7 0 1 207.67 206.46
  Q 208.79 206.47 209.90 206.86
  A 0.23 0.23 0.0 0 1 209.85 207.30
  Z"
/>
<ellipse fill="#91b486" fill-opacity="0.125" cx="0.00" cy="0.00" transform="translate(309.72,207.05) rotate(-48.9)" rx="0.72" ry="0.56"/>
<path fill="#ffffff" d="
  M 340.89 207.24
  L 337.38 207.58
  A 0.12 0.09 54.2 0 1 337.32 207.56
  Q 337.03 207.32 337.12 206.89
  A 0.15 0.15 0.0 0 1 337.37 206.81
  Q 338.02 207.43 338.45 206.71
  A 0.56 0.55 26.0 0 1 339.14 206.48
  L 340.90 207.16
  A 0.04 0.04 0.0 0 1 340.89 207.24
  Z"
/>
<path fill="#ffffff" d="
  M 368.53 206.69
  Q 368.69 206.61 369.41 206.53
  A 0.35 0.34 -52.4 0 1 369.49 207.21
  Q 369.12 207.28 368.57 207.14
  A 0.24 0.24 0.0 0 1 368.53 206.69
  Z"
/>
<path fill="#060709" d="
  M 244.81 206.77
  Q 245.15 206.79 245.17 206.90
  A 0.29 0.29 0.0 0 1 244.62 207.08
  Q 244.57 206.99 244.75 206.80
  A 0.10 0.06 -58.3 0 1 244.81 206.77
  Z"
/>
<path fill="#ffffff" d="
  M 180.74 207.43
  A 0.18 0.18 0.0 0 1 180.75 207.08
  Q 180.99 207.03 181.07 207.07
  A 0.18 0.17 -41.8 0 1 181.05 207.40
  Q 180.84 207.46 180.74 207.43
  Z"
/>
<path fill="#060709" d="
  M 260.79 207.61
  Q 260.53 207.35 261.00 207.08
  A 0.12 0.12 0.0 0 1 261.17 207.23
  Q 261.16 207.26 260.98 207.58
  A 0.12 0.12 0.0 0 1 260.79 207.61
  Z"
/>
<path fill="#060709" d="
  M 367.61 207.35
  Q 367.39 207.44 367.17 207.39
  A 0.27 0.27 0.0 0 1 367.03 206.93
  Q 367.20 206.75 367.50 206.75
  A 0.31 0.31 0.0 0 1 367.61 207.35
  Z"
/>
<path fill="#91b486" fill-opacity="0.125" d="
  M 277.61 207.28
  A 0.10 0.10 0.0 0 1 277.71 207.12
  Q 277.96 207.18 278.05 207.29
  A 0.11 0.11 0.0 0 1 277.98 207.47
  Q 277.79 207.47 277.61 207.28
  Z"
/>
<ellipse fill="#ffffff" cx="0.00" cy="0.00" transform="translate(442.85,207.58) rotate(-142.4)" rx="0.39" ry="0.24"/>
<rect fill="#91b486" fill-opacity="0.125" x="-1.27" y="-3.85" transform="translate(104.48,223.01) rotate(-0.1)" width="2.54" height="7.70" rx="0.56"/>
<path fill="#060709" d="
  M 500.65 220.98
  Q 500.61 221.07 500.52 221.10
  A 0.09 0.08 -86.3 0 1 500.42 220.98
  Q 500.43 220.96 500.55 220.86
  A 0.09 0.07 88.3 0 1 500.65 220.98
  Z"
/>
</svg>
