<svg width="587" height="1137" viewBox="0 0 587 1137" fill="none" stroke-width="1.5" xmlns="http://www.w3.org/2000/svg">
  <path d="M350.375 495.875L345.75 503.125L344 517.875L342.125 531.125L340.875 540L338.75 552.875L336.75 562.25L332.5 577.625L327.75 591.625L324.375 602.5L320.875 615L318.5 625.25L316.125 638.375L314.5 652.125L313.25 668.375L312.875 688L313.25 703.125V715L315.5 728.375L318.125 704.25L320.75 683.375L324.75 656.5C326.417 648 330.3 629.3 332.5 622.5C335.25 614 340.5 598.875 343.125 591.625C345.225 585.825 348.083 575.625 349.25 571.25L352.25 554.625L355.25 531.125L359.5 490.125L354.5 492.5L350.375 495.875Z" stroke="#6366F1"/>
  <path d="M236.125 495.875L240.75 503.125L242.5 517.875L244.375 531.125L245.625 540L247.75 552.875L249.75 562.25L254 577.625L258.75 591.625L262.125 602.5L265.625 615L268 625.25L270.375 638.375L272 652.125L273.25 668.375L273.625 688L273.25 703.125V715L271 728.375L268.375 704.25L265.75 683.375L261.75 656.5C260.083 648 256.2 629.3 254 622.5C251.25 614 246 598.875 243.375 591.625C241.275 585.825 238.417 575.625 237.25 571.25L234.25 554.625L231.25 531.125L227 490.125L232 492.5L236.125 495.875Z" stroke="#6366F1"/>
  <path d="M341.25 1102.99C340.681 1104.14 339.8 1105.55 338.625 1107.63C335.375 1113.38 338 1118.13 338.375 1119.38C338.75 1120.63 341.25 1135.12 354.125 1135.75C359.25 1136 361.625 1134.63 363.25 1133C364.875 1131.38 364.125 1128 364.375 1127.75C364.625 1127.5 365.75 1127.5 366.25 1127.75C366.75 1128 365.75 1134.13 372.375 1134.13C377.675 1134.13 378.599 1129.71 378.398 1127.5C378.802 1129.25 379.949 1131 382.625 1131C385.315 1131 386.427 1129.33 386.75 1127.5C387.25 1129.13 389.5 1129.63 392.125 1129.25C393.487 1129.06 394.07 1127.4 394.25 1125.63C394.375 1126.13 395.5 1126.5 397.5 1126.5C399.5 1126.5 400.625 1123.88 400.625 1122.63C400.625 1121.38 401.375 1122.25 402.125 1119.88C402.875 1117.5 403.125 1110.63 399 1103.75C395.941 1098.65 391.233 1095.41 388.289 1093.21M245.565 1102.99C246.134 1104.14 247.015 1105.55 248.19 1107.63C251.44 1113.38 248.815 1118.13 248.44 1119.38C248.065 1120.63 245.565 1135.12 232.69 1135.75C227.565 1136 225.19 1134.63 223.565 1133C221.94 1131.38 222.69 1128 222.44 1127.75C222.19 1127.5 221.065 1127.5 220.565 1127.75C220.065 1128 221.065 1134.13 214.44 1134.13C209.14 1134.13 208.216 1129.71 208.416 1127.5C208.013 1129.25 206.866 1131 204.19 1131C201.5 1131 200.388 1129.33 200.065 1127.5C199.565 1129.13 197.315 1129.63 194.69 1129.25C193.328 1129.06 192.744 1127.4 192.565 1125.63C192.44 1126.13 191.315 1126.5 189.315 1126.5C187.315 1126.5 186.19 1123.88 186.19 1122.63C186.19 1121.38 185.44 1122.25 184.69 1119.88C183.94 1117.5 183.69 1110.63 187.815 1103.75C190.874 1098.65 195.582 1095.41 198.525 1093.21M356.779 1120.81C356.964 1120.86 357.132 1120.93 357.279 1121C358.879 1121.8 357.875 1125.38 357.875 1127.12C357.875 1129.38 357.875 1132.88 356 1132.88C353.735 1132.88 353.288 1130.46 352.994 1129.5C352.494 1127.88 350.625 1123.12 350.625 1121.99C350.625 1121.82 350.762 1121.65 351 1121.5M356.779 1120.81C357.904 1120 357.279 1114.25 357.279 1110.62C357.279 1107 359 1104.75 358.375 1100.12M356.779 1120.81C354.83 1120.24 352.211 1120.72 351 1121.5M351 1121.5C348.625 1121.38 347.807 1112.75 347.529 1109.62C347.25 1106.5 345.582 1104.89 347.529 1099.38M358.375 1100.12C358.158 1099.42 357.832 1098.9 357.369 1098.62C355.931 1097.76 351.005 1096.43 348.869 1097.5C348.294 1097.79 347.856 1098.45 347.529 1099.38M358.375 1100.12C359.494 1099.62 360.869 1097.12 359.619 1095.12C358.369 1093.12 354.978 1092.87 352.994 1092.62C350.994 1092.38 344 1092.25 347.529 1099.38M370.228 1122C370.057 1122.09 369.775 1122.12 369.775 1122.28C369.775 1123.87 371.346 1126.92 371.786 1129.12C372.227 1131.33 372.089 1133.12 374.125 1133.12C375.731 1133.12 375.267 1130.56 375.267 1129.62C375.267 1128.62 375.951 1123.86 375.731 1122.75C375.698 1122.58 375.531 1122.45 375.267 1122.34M370.228 1122C368.966 1121.43 366.702 1116.11 366.289 1112.36C365.877 1108.61 363.714 1108.68 364.25 1103.5M370.228 1122C372.027 1121.06 373.926 1121.81 375.267 1122.34L375.267 1122.34M375.267 1122.34C377.574 1121.77 374.324 1115.77 374.324 1111.75M374.324 1111.75C374.324 1107.73 373.728 1107.25 372.125 1101.71M374.324 1111.75C375.566 1111.44 376.503 1111.39 377.015 1111.12M364.25 1103.5C364.326 1102.77 364.544 1102.2 364.944 1101.83C366.185 1100.7 368.141 1099.51 370.444 1100.14C371.064 1100.3 371.624 1100.87 372.125 1101.71M364.25 1103.5C363.056 1103.23 361.907 1100.64 362.741 1098.44C363.576 1096.23 365.815 1095.91 367.713 1095.28C369.625 1094.64 374.192 1094.03 372.125 1101.71M380.771 1121.13C380.646 1121.22 380.431 1121.25 380.444 1121.41C380.576 1122.98 381.834 1123.65 382.358 1125.83C382.882 1128.02 383.224 1130.13 384.501 1129.82C385.778 1129.52 385.172 1127.31 385.094 1126.38C385.011 1125.39 385.356 1123.06 385.094 1121.97C385.054 1121.8 384.914 1121.66 384.701 1121.55M380.771 1121.13C379.747 1120.55 377.825 1115.65 377.194 1111.93C377.146 1111.65 377.085 1111.38 377.015 1111.12M380.771 1121.13C382.086 1120.24 383.619 1121.01 384.7 1121.55L384.701 1121.55M384.701 1121.55C386.438 1121.02 383.956 1112.69 383.831 1111.2C383.706 1109.72 384.286 1105.7 381.556 1100.69M381.556 1100.69C381.097 1099.85 380.618 1099.28 380.124 1099.1C378.288 1098.45 375.191 1099.61 374.324 1100.7C374.044 1101.05 373.923 1101.62 373.925 1102.34C373.939 1107.06 376.175 1108.08 377.015 1111.12M381.556 1100.69C382.517 1093.13 378.031 1094.08 376.603 1094.68C375.402 1094.91 373 1095.47 373 1095.88M388.849 1119.95C388.744 1120.03 388.558 1120.06 388.576 1120.21C388.75 1121.68 389.866 1122.31 390.404 1124.36C390.941 1126.41 390.625 1128.57 392.414 1128.1C393.857 1127.73 392.9 1125.74 392.798 1124.88C392.688 1123.95 392.899 1121.76 392.63 1120.73C392.589 1120.57 392.463 1120.45 392.274 1120.35M388.849 1119.95C387.939 1119.4 387.111 1114.83 386.423 1111.34C385.735 1107.86 383.431 1107.13 383.224 1102.34C383.195 1101.66 383.278 1101.13 383.507 1100.8C384.218 1099.78 385.835 1098.66 387.452 1099.28C387.888 1099.45 388.325 1099.98 388.755 1100.77M388.849 1119.95C389.956 1119.11 391.314 1119.83 392.273 1120.34L392.274 1120.35M392.274 1120.35C393.76 1119.84 391.291 1112.03 391.127 1110.64C390.962 1109.24 391.313 1105.47 388.755 1100.77M388.755 1100.77C388.849 1096.12 386 1094.76 384.231 1095.13C383.198 1095.35 381.599 1095.75 381.25 1096.12M395.419 1119.07C395.338 1119.15 395.187 1119.18 395.214 1119.31C395.47 1120.56 396.01 1121 396.353 1122.75C396.695 1124.5 396.623 1125.79 397.853 1125.83C399.707 1125.9 399.039 1123.88 399.039 1123.06C399.039 1122.26 398.884 1120.39 398.585 1119.53C398.54 1119.4 398.426 1119.3 398.263 1119.22M395.419 1119.07C394.628 1118.66 394.053 1114.69 393.221 1111.75C392.544 1110.25 391.209 1107.29 390.625 1106M395.419 1119.07C396.263 1118.29 397.435 1118.84 398.262 1119.22L398.263 1119.22M398.263 1119.22C399.446 1118.71 397.274 1112.07 397.033 1110.89C396.791 1109.71 395.683 1106.78 393.221 1102.91M393.221 1102.91C392.808 1102.26 392.408 1101.83 392.038 1101.71C391.208 1101.71 389.834 1101.99 389.25 1102.13M393.221 1102.91C392.945 1098.94 389.925 1098.08 388.5 1098.5M382.5 1095C380.625 1090.12 384.25 1090.75 378.875 1088.62C376.514 1087.69 373.935 1087.43 372.125 1088.04M369.761 1091.12C369.752 1092.16 370.125 1093.44 371 1095M369.761 1091.12C367.56 1088.49 361.362 1088.63 358.813 1090.38M369.761 1091.12C369.774 1089.51 370.717 1088.51 372.125 1088.04M364.25 1096.75C363.125 1097 360.325 1096.68 358.125 1093.38C357.305 1092.15 357.73 1091.12 358.813 1090.38M358.813 1090.38C355.91 1088.64 354.597 1087.62 353.579 1087.12M346.625 1095C346.292 1092.67 346.425 1087.83 349.625 1087.12C351.71 1086.67 352.47 1086.59 353.579 1087.12M372.125 1088.04C368.625 1086.5 358.657 1083.88 353.579 1087.12M363 1101.37C361 1102.27 359.25 1101.75 358.625 1101.37M344.875 1103.5C343.575 1107.1 345.959 1111.54 347.375 1111.75M357.375 1113.87C361.975 1114.47 364.8 1113.48 366.384 1113.23" stroke="#6366F1" stroke-linecap="round" stroke-linejoin="round"/>
  <path d="M129.75 277.689L128.5 303.689C133.1 295.826 135.378 292.139 140.382 285.064C147.071 275.608 155.003 266.506 168.875 255.065C174.375 236.815 180 233.815 185.25 229.19C190.5 224.565 197.875 212.815 211.625 208.19C225.375 203.565 228.5 205.315 232.625 203.565C236.75 201.815 241.375 198.228 244.625 198.439C227.25 196.439 216.75 194.814 209.625 193.064C206.595 192.32 202.82 190.536 198.125 188.914C191.78 186.722 182.125 193.797 177.625 196.979C177.125 197.354 177.625 196.979 175.625 198.44C167.25 204.558 155.638 215.048 148.75 223.104C138 238.854 130.375 262.643 130.375 266.479C130.375 275.279 129.945 274.856 129.737 277.939" stroke="#6366F1" stroke-linecap="round" stroke-linejoin="round"/>
  <path d="M456.875 277.689L458.125 303.689C453.525 295.826 451.247 292.139 446.243 285.064C439.554 275.608 431.622 266.506 417.75 255.065C412.25 236.815 406.625 233.815 401.375 229.19C396.125 224.565 388.75 212.815 375 208.19C361.25 203.565 358.125 205.315 354 203.565C349.875 201.815 345.25 198.228 342 198.439C359.375 196.439 369.875 194.814 377 193.064C380.03 192.32 383.805 190.536 388.5 188.914C394.845 186.722 404.5 193.797 409 196.979C409.5 197.354 409 196.979 411 198.44C419.375 204.558 430.987 215.048 437.875 223.104C448.625 238.854 456.25 262.643 456.25 266.479C456.25 275.279 456.68 274.856 456.888 277.939" stroke="#6366F1" stroke-linecap="round" stroke-linejoin="round"/>
</svg>
